<svg width="45" height="25" viewBox="0 0 45 25" fill="none" xmlns="http://www.w3.org/2000/svg">
<path id="Vector" d="M22.5 24.9989C22.1711 25.0008 21.8451 24.9377 21.5407 24.8134C21.2362 24.689 20.9593 24.5058 20.7258 24.2742L0.734895 4.28328C0.501905 4.05029 0.317087 3.77369 0.190994 3.46928C0.0649002 3.16486 0 2.83859 0 2.50909C0 1.84364 0.26435 1.20544 0.734895 0.734894C1.20544 0.264349 1.84364 0 2.50909 0C3.17454 0 3.81274 0.264349 4.28328 0.734894L22.5 18.9766L40.7167 0.734894C41.1873 0.264349 41.8255 -7.43926e-10 42.4909 -7.55766e-10C43.1564 -7.67602e-10 43.7946 0.264349 44.2651 0.734894C44.7356 1.20544 45 1.84364 45 2.50909C45 3.17454 44.7356 3.81274 44.2651 4.28328L24.2742 24.2742C24.0407 24.5058 23.7638 24.689 23.4593 24.8134C23.1549 24.9377 22.8289 25.0008 22.5 24.9989Z" fill="#FFFEFE"/>
</svg>
