<svg width="29" height="30" viewBox="0 0 29 30" fill="none" xmlns="http://www.w3.org/2000/svg">
<path id="Vector" d="M22.8389 0.0189334L6.06711 0.0430124C3.13205 0.0472262 0.829698 2.60253 0.834496 5.85053L0.867055 27.8905C0.86774 28.3545 1.0779 28.7022 1.49754 28.9336C1.60253 29.0495 1.81218 29.0492 1.91701 29.049C2.12665 29.0487 2.44095 28.9322 2.65043 28.8159C7.15134 24.4015 12.9132 22.0732 18.8882 22.0646L22.8715 22.0589C25.8065 22.0547 28.1089 19.4994 28.1041 16.2514L28.0887 5.8114C28.0839 2.56341 25.774 0.0147195 22.8389 0.0189334ZM12.3788 15.114L9.2341 15.1185C8.60516 15.1194 8.18518 14.656 8.18415 13.96C8.18312 13.264 8.60173 12.7994 9.23067 12.7985L12.3754 12.794C13.0043 12.7931 13.4243 13.2565 13.4253 13.9525C13.4264 14.6485 13.0078 15.1131 12.3788 15.114ZM15.5167 10.4695L9.22725 10.4785C8.5983 10.4794 8.17832 10.016 8.1773 9.31999C8.17627 8.62399 8.59488 8.15939 9.22382 8.15849L15.5132 8.14946C16.1422 8.14856 16.5622 8.61195 16.5632 9.30795C16.5642 10.004 16.1456 10.4686 15.5167 10.4695Z" fill="#FFFBFB"/>
</svg>
