<svg width="33" height="36" viewBox="0 0 33 36" fill="none" xmlns="http://www.w3.org/2000/svg">
<path id="Vector" d="M26.0946 0.0157096L6.21295 0.044663C2.73366 0.0497298 0.00442433 3.13371 0.010133 7.0537L0.0488702 33.6537C0.0496858 34.2137 0.298818 34.6333 0.796266 34.9126C0.92073 35.0524 1.16925 35.052 1.29351 35.0519C1.54203 35.0515 1.91461 34.911 2.16292 34.7706C7.49837 29.4428 14.3286 26.6329 21.4114 26.6226L26.1333 26.6157C29.6126 26.6106 32.3418 23.5266 32.3361 19.6066L32.3178 7.00665C32.3121 3.08666 29.5739 0.0106427 26.0946 0.0157096ZM13.6951 18.2338L9.96726 18.2392C9.2217 18.2403 8.72384 17.681 8.72262 16.841C8.7214 16.001 9.21762 15.4403 9.96318 15.4392L13.691 15.4338C14.4366 15.4327 14.9344 15.992 14.9356 16.832C14.9369 17.672 14.4406 18.2327 13.6951 18.2338ZM17.4147 12.6284L9.95911 12.6392C9.21354 12.6403 8.71569 12.081 8.71446 11.241C8.71324 10.401 9.20947 9.84031 9.95503 9.83922L17.4106 9.82837C18.1562 9.82728 18.6541 10.3866 18.6553 11.2266C18.6565 12.0666 18.1603 12.6273 17.4147 12.6284Z" fill="#FFFBFB"/>
</svg>
