<svg width="41" height="46" viewBox="0 0 41 46" fill="none" xmlns="http://www.w3.org/2000/svg">
<path id="Vector" d="M32.8369 0.994208L7.83691 1.03061C3.46191 1.03699 0.0300541 4.9149 0.0372324 9.84407L0.0859422 43.2919C0.0869677 43.9961 0.400236 44.5238 1.02575 44.875C1.18225 45.0508 1.49475 45.0503 1.651 45.0501C1.9635 45.0496 2.432 44.8729 2.74424 44.6964C9.45324 37.997 18.0419 34.4637 26.9481 34.4507L32.8856 34.4421C37.2606 34.4357 40.6924 30.5578 40.6853 25.6286L40.6622 9.7849C40.655 4.85574 37.2119 0.987836 32.8369 0.994208ZM17.2452 23.9024L12.5577 23.9092C11.6202 23.9105 10.9942 23.2073 10.9927 22.151C10.9911 21.0948 11.6151 20.3897 12.5526 20.3884L17.2401 20.3815C18.1776 20.3802 18.8036 21.0834 18.8052 22.1397C18.8067 23.1959 18.1827 23.901 17.2452 23.9024ZM21.9225 16.8539L12.5475 16.8675C11.61 16.8689 10.984 16.1656 10.9824 15.1094C10.9809 14.0531 11.6048 13.3481 12.5423 13.3467L21.9173 13.333C22.8548 13.3317 23.4809 14.0349 23.4824 15.0912C23.4839 16.1474 22.86 16.8525 21.9225 16.8539Z" fill="#FFFBFB"/>
</svg>
