<svg width="34" height="33" viewBox="0 0 34 33" fill="none" xmlns="http://www.w3.org/2000/svg">
<g id="Vector">
<path d="M16.9197 0.00564178C12.9189 0.00686293 9.05407 1.43247 6.04145 4.01831C3.02883 6.60415 1.07262 10.1749 0.535293 14.069C-0.00203699 17.963 0.915941 21.9164 3.11913 25.1965C5.32232 28.4766 8.66136 30.8611 12.5176 31.9082C12.683 31.9693 12.8596 31.9959 13.0361 31.9863C13.2126 31.9767 13.3851 31.931 13.5427 31.8523C13.7002 31.7735 13.8393 31.6634 13.9511 31.5289C14.0629 31.3944 14.1449 31.2385 14.192 31.0711C14.239 30.9038 14.25 30.7286 14.2243 30.5568C14.1986 30.385 14.1367 30.2204 14.0426 30.0734C13.9485 29.9265 13.8243 29.8003 13.6778 29.7032C13.5313 29.606 13.3658 29.5398 13.1919 29.5089C9.98983 28.6477 7.20379 26.6965 5.33141 24.0038C3.45903 21.311 2.62225 18.0522 2.97054 14.8094C3.31883 11.5665 4.82951 8.55087 7.23274 6.30111C9.63596 4.05136 12.7752 2.71401 16.0897 2.52797C19.4042 2.34192 22.6781 3.31928 25.3266 5.28548C27.9751 7.25168 29.8256 10.0786 30.5477 13.2614C31.2698 16.4442 30.8164 19.7754 29.2685 22.6602C27.7205 25.5449 25.1789 27.7952 22.0976 29.009C22.1778 27.367 22.0496 25.7215 21.7159 24.1106C23.5244 23.7166 25.1368 22.7167 26.2766 21.2825C27.4164 19.8483 28.0126 18.0692 27.9627 16.2505C28.0546 14.5398 27.5864 12.8451 26.6269 11.4145C26.8048 9.99513 26.6302 8.55454 26.118 7.21584C26.0226 6.9367 25.8298 6.69963 25.5738 6.54646C25.3177 6.39328 25.0149 6.33384 24.7185 6.37861C23.1841 6.58445 21.7177 7.13151 20.4311 7.97813C19.2849 7.67882 18.1055 7.51934 16.9197 7.5033C15.6305 7.53666 14.3497 7.71699 13.1029 8.04065C11.8662 7.11143 10.3595 6.59479 8.80273 6.56613C8.52843 6.55023 8.25626 6.62197 8.02692 6.77064C7.79759 6.9193 7.62342 7.1369 7.53048 7.39088C7.06388 8.66648 6.90279 10.0305 7.05972 11.3771C6.14684 12.8418 5.68304 14.5338 5.72384 16.2506C5.77097 18.0602 6.41751 19.8054 7.56543 21.2215C8.71336 22.6376 10.3001 23.6475 12.085 24.0981C12.0033 24.4236 11.9396 24.7531 11.8942 25.0853C10.6219 25.1603 9.88404 24.3981 8.94259 23.2359C8.38839 22.3212 7.50925 21.6402 6.47444 21.324C6.15308 21.2678 5.822 21.335 5.54968 21.5117C5.27736 21.6885 5.08462 21.9613 5.01135 22.2737C4.94088 22.5864 4.99531 22.9137 5.16339 23.1881C5.33148 23.4624 5.60039 23.663 5.91463 23.7483C6.11819 23.7483 6.61437 24.3981 6.89426 24.7605C7.4012 25.5709 8.09942 26.2496 8.92986 26.739C9.76029 27.2284 10.6985 27.5141 11.6652 27.572C12.2243 27.5713 12.7808 27.4956 13.3191 27.3471C13.4509 27.3088 13.5755 27.2497 13.688 27.1722C13.7809 27.1 13.8587 27.0109 13.9171 26.9097C13.9575 26.8785 13.992 26.8404 14.0188 26.7973C14.0519 26.7293 14.0775 26.6581 14.0952 26.5848C14.1264 26.5034 14.1519 26.4198 14.1715 26.3349C14.1673 25.5046 14.3681 24.6856 14.7568 23.9482C14.9148 23.7666 15.0166 23.5444 15.0501 23.3078C15.0835 23.0712 15.0472 22.8301 14.9455 22.6131C14.8437 22.3962 14.6808 22.2124 14.476 22.0836C14.2712 21.9548 14.0331 21.8863 13.7899 21.8863C12.3153 21.8046 10.9268 21.1783 9.90276 20.1331C8.87871 19.0878 8.29487 17.701 8.26833 16.2506C8.20533 14.9152 8.59457 13.5969 9.37521 12.5018C9.50181 12.3623 9.59497 12.1967 9.64781 12.0172C9.70065 11.8378 9.71184 11.6489 9.68055 11.4646C9.53415 10.7007 9.53416 9.9167 9.68057 9.15282C10.5131 9.32598 11.2798 9.72416 11.8943 10.3024C12.0601 10.4588 12.266 10.568 12.49 10.6186C12.714 10.6693 12.9478 10.6593 13.1665 10.5899C14.3891 10.2473 15.6492 10.0501 16.9196 10.0025C18.0631 10.0306 19.1973 10.2113 20.2911 10.5398C20.5043 10.6174 20.7347 10.6375 20.9585 10.5979C21.1822 10.5583 21.3911 10.4606 21.5633 10.3149C22.3046 9.71503 23.1745 9.2878 24.1078 9.06527C24.2987 9.84982 24.2987 10.6675 24.1078 11.452C24.0581 11.6771 24.0695 11.911 24.141 12.1304C24.2124 12.3497 24.3414 12.5468 24.5149 12.7016C25.2618 13.73 25.5845 14.9979 25.4182 16.2505C25.4482 16.985 25.324 17.7177 25.0535 18.403C24.783 19.0884 24.3719 19.7117 23.8457 20.2344C23.3195 20.7571 22.6895 21.1679 21.9948 21.4413C21.3001 21.7148 20.5556 21.8449 19.8076 21.8238C19.5476 21.823 19.2937 21.9004 19.0799 22.0456C18.866 22.1908 18.7027 22.3969 18.6117 22.6361C18.5193 22.8753 18.504 23.1366 18.5677 23.3846C18.6314 23.6327 18.7711 23.8555 18.9679 24.0231C19.7185 24.6604 19.604 29.0216 19.5658 30.721C19.5608 30.915 19.6019 31.1075 19.6859 31.2832C19.7698 31.4589 19.8942 31.6129 20.0493 31.7332C20.2748 31.9051 20.5526 31.9975 20.838 31.9956C20.9437 32.0078 21.0505 32.0078 21.1561 31.9956C25.0779 31.0182 28.4988 28.6627 30.7716 25.3749C33.0444 22.0871 34.0113 18.095 33.4894 14.1542C32.9676 10.2133 30.9931 6.59712 27.9396 3.98983C24.8861 1.38254 20.9655 -0.0349353 16.9197 0.00564178Z" fill="white"/>
<path d="M16.9247 0.505617L16.9198 0.505665C13.0374 0.506827 9.28834 1.89031 6.36711 4.39771C3.44609 6.90493 1.55106 10.3655 1.0306 14.1373C0.510151 17.909 1.39908 21.7389 3.5342 24.9177C5.66948 28.0967 8.90706 30.4097 12.6486 31.4257L12.67 31.4315L12.6909 31.4392C12.7921 31.4766 12.9004 31.493 13.0089 31.4871C13.1173 31.4811 13.223 31.4531 13.3191 31.4051C13.4152 31.357 13.4994 31.2902 13.5666 31.2093C13.6338 31.1284 13.6827 31.0352 13.7106 30.9358C13.7385 30.8365 13.7451 30.7327 13.7298 30.6309C13.7146 30.529 13.6778 30.431 13.6215 30.343C13.5652 30.255 13.4903 30.1788 13.4013 30.1198C13.3123 30.0607 13.2112 30.0202 13.1045 30.0012L13.083 29.9974L13.062 29.9918C9.74743 29.1003 6.86143 27.08 4.9209 24.2892C2.98021 21.4983 2.11217 18.1192 2.4734 14.756C2.83462 11.3928 4.40123 8.26691 6.89103 5.9361C9.38064 3.60548 12.6312 2.22131 16.0617 2.02875C19.4922 1.8362 22.8816 2.84762 25.6246 4.88402C28.3679 6.92057 30.2865 9.85018 31.0353 13.1508C31.7842 16.4515 31.3138 19.906 29.709 22.8966C28.1044 25.8869 25.4709 28.2175 22.2809 29.4742L21.5604 29.7581L21.5982 28.9846C21.6764 27.3848 21.5515 25.7816 21.2263 24.212L21.126 23.7274L21.6095 23.622C23.3066 23.2523 24.8179 22.3144 25.8852 20.9714C26.9523 19.6287 27.5095 17.9644 27.4629 16.2642L27.4624 16.2439L27.4634 16.2237C27.5494 14.6218 27.1112 13.0342 26.2116 11.693L26.1075 11.5378L26.1308 11.3524C26.2984 10.0146 26.1339 8.6567 25.651 7.3945L25.6478 7.38611L25.6449 7.37761C25.5882 7.21175 25.4729 7.06876 25.3171 6.97554C25.1611 6.8822 24.9754 6.84547 24.7932 6.873L24.785 6.87424L24.785 6.87417C23.3246 7.07008 21.9295 7.5907 20.7059 8.39582L20.52 8.51813L20.3047 8.46191C19.2008 8.17363 18.065 8.01963 16.9227 8.00339C15.6749 8.03643 14.4353 8.21135 13.2285 8.52461L12.9953 8.58517L12.8026 8.44039C11.6506 7.5748 10.2459 7.09278 8.79352 7.06605L8.78364 7.06587L8.77378 7.06529C8.60509 7.05551 8.43844 7.09974 8.2989 7.19019C8.1595 7.28056 8.05529 7.4117 8.00002 7.56272C7.56023 8.76505 7.4085 10.0504 7.55636 11.3193L7.57662 11.4931L7.48405 11.6416C6.62258 13.0238 6.18532 14.6196 6.22369 16.2382C6.26807 17.9366 6.87491 19.5756 7.95385 20.9066C9.03306 22.238 10.526 23.1889 12.2074 23.6133L12.6916 23.7356L12.57 24.2199C12.4927 24.5275 12.4325 24.839 12.3896 25.1531L12.3339 25.5603L11.9236 25.5845C10.3707 25.676 9.48465 24.6994 8.55407 23.5507L8.53261 23.5242L8.51495 23.495C8.03101 22.6963 7.26524 22.0971 6.36051 21.8122C6.17176 21.786 5.97996 21.8285 5.82191 21.9311C5.65703 22.0381 5.54245 22.2015 5.49864 22.3858C5.45764 22.5702 5.48974 22.7636 5.58975 22.9269C5.68484 23.0821 5.83527 23.1999 6.01433 23.2565C6.1153 23.2733 6.19545 23.3117 6.24464 23.3388C6.31701 23.3786 6.38174 23.4273 6.43522 23.4721C6.54258 23.562 6.65138 23.6757 6.7497 23.7865C6.93649 23.9968 7.12962 24.2471 7.26562 24.4233L7.28997 24.4548L7.30507 24.4744L7.31817 24.4953C7.78217 25.2371 8.42184 25.8592 9.18372 26.3082C9.94128 26.7547 10.7972 27.0167 11.6798 27.072C12.1879 27.07 12.6933 27.0007 13.1824 26.8661C13.257 26.8441 13.3276 26.8113 13.3918 26.7689C13.4292 26.7379 13.4603 26.7009 13.4839 26.66L13.5333 26.5744L13.5897 26.5308C13.5975 26.51 13.604 26.4889 13.6092 26.4674L13.6167 26.436L13.6283 26.4058C13.645 26.3624 13.6594 26.3182 13.6716 26.2734C13.6773 25.3826 13.8976 24.5058 14.3144 23.715L14.3415 23.6636L14.3797 23.6198C14.4748 23.5106 14.5352 23.3779 14.555 23.2378C14.5748 23.0977 14.5534 22.9547 14.4928 22.8254C14.4321 22.6961 14.3344 22.5852 14.2098 22.5068C14.0852 22.4284 13.9394 22.3863 13.7899 22.3863L13.776 22.3863L13.7622 22.3855C12.1643 22.297 10.6579 21.6183 9.54561 20.483C8.43478 19.3492 7.79925 17.8436 7.76855 16.267C7.70197 14.8213 8.12417 13.3954 8.96806 12.2116L8.98518 12.1875L9.005 12.1657C9.08124 12.0817 9.13678 11.9827 9.16816 11.876C9.19912 11.7709 9.20597 11.6606 9.18835 11.5527C9.03117 10.7286 9.03156 9.88277 9.1895 9.05871L9.28511 8.55986L9.78239 8.6633C10.7045 8.85509 11.5548 9.29631 12.2369 9.93834L12.2372 9.9386C12.3374 10.0331 12.4627 10.0999 12.6002 10.1309C12.7377 10.162 12.8812 10.1559 13.0152 10.1133L13.0234 10.1107L13.0316 10.1084C14.2922 9.75522 15.5912 9.55194 16.9009 9.50287L16.9164 9.50229L16.9319 9.50267C18.1199 9.53183 19.2983 9.71963 20.4349 10.061L20.4486 10.0651L20.4621 10.07C20.5926 10.1175 20.734 10.1298 20.8714 10.1055C21.0088 10.0812 21.1361 10.0214 21.2404 9.93316L21.2487 9.92613L21.2488 9.92622C22.0485 9.27906 22.9864 8.81865 23.9919 8.5789L24.4761 8.46347L24.5937 8.9471C24.8029 9.80735 24.8034 10.7039 24.5951 11.5644C24.5657 11.7008 24.573 11.8424 24.6164 11.9755C24.6602 12.1101 24.7397 12.232 24.8479 12.3286L24.8879 12.3643L24.9195 12.4078C25.7327 13.5275 26.0897 14.9068 25.9194 16.2733C25.9457 17.0631 25.8094 17.85 25.5186 18.5866C25.2226 19.3366 24.7729 20.0181 24.198 20.5892C23.6232 21.1601 22.9355 21.6084 22.1779 21.9066C21.4226 22.2039 20.6135 22.3458 19.8006 22.3238M16.9247 0.505617L19.8076 21.8238M16.9247 0.505617C20.8508 0.46624 24.6541 1.84186 27.6149 4.37007C30.5756 6.89809 32.4883 10.4027 32.9938 14.2198C33.4993 18.0368 32.5629 21.9043 30.3603 25.0906C28.1642 28.2674 24.8606 30.5482 21.0699 31.5018M16.9247 0.505617L21.1561 31.9956M19.8006 22.3238C19.7982 22.3237 19.7958 22.3237 19.7935 22.3236L19.8076 21.8238M19.8006 22.3238C19.8024 22.3238 19.8042 22.3238 19.806 22.3238L19.8076 21.8238M19.8006 22.3238C19.6426 22.3244 19.4893 22.3719 19.3608 22.4592C19.2309 22.5474 19.1331 22.6715 19.079 22.8138L19.0781 22.8161C19.0233 22.9583 19.0142 23.1132 19.052 23.2602C19.0897 23.4072 19.1728 23.5408 19.2917 23.6421M19.8076 21.8238C19.5476 21.823 19.2937 21.9004 19.0799 22.0456C18.866 22.1908 18.7027 22.3969 18.6117 22.6361C18.5194 22.8753 18.504 23.1366 18.5677 23.3846C18.6314 23.6327 18.7711 23.8555 18.9679 24.0231C19.7034 24.6476 19.6082 28.8474 19.5682 30.6151C19.5674 30.6515 19.5666 30.6868 19.5658 30.721C19.5608 30.915 19.6019 31.1075 19.6859 31.2832C19.7698 31.4589 19.8942 31.6129 20.0493 31.7332M19.2917 23.6421C19.2916 23.642 19.2916 23.642 19.2915 23.642L18.9682 24.0228L19.2921 23.6424C19.2919 23.6423 19.2918 23.6422 19.2917 23.6421ZM19.2917 23.6421C19.4831 23.8047 19.6004 24.0387 19.679 24.2491C19.7622 24.4715 19.8256 24.733 19.8755 25.0112C19.9755 25.5687 20.0316 26.2524 20.0622 26.9519C20.1209 28.2957 20.0877 29.7592 20.0681 30.6235C20.0673 30.6609 20.0665 30.6972 20.0657 30.7322L20.0656 30.7338C20.0627 30.8487 20.087 30.9629 20.137 31.0677C20.1868 31.1718 20.2608 31.2641 20.354 31.3368M20.354 31.3368C20.3535 31.3364 20.3529 31.336 20.3524 31.3356L20.0493 31.7332M20.354 31.3368C20.3546 31.3372 20.3551 31.3377 20.3557 31.3381L20.0493 31.7332M20.354 31.3368C20.4906 31.4403 20.6598 31.4968 20.8347 31.4956L20.8652 31.4954L20.8954 31.4989C20.9534 31.5056 21.0118 31.5066 21.0699 31.5018M20.0493 31.7332C20.2748 31.9051 20.5526 31.9975 20.838 31.9956C20.9437 32.0078 21.0505 32.0078 21.1561 31.9956M9.68057 9.15282C9.84488 9.187 10.0066 9.22994 10.1652 9.2813C10.1673 9.26984 10.1694 9.25838 10.1716 9.24693L9.68057 9.15282ZM9.68057 9.15282L9.57874 9.64234C9.58797 9.64426 9.59719 9.64621 9.6064 9.64819C9.62435 9.48241 9.64907 9.31715 9.68057 9.15282ZM22.0976 29.009L21.9143 28.5438C21.982 28.5172 22.0495 28.49 22.1166 28.4623C22.1128 28.6445 22.1065 28.8268 22.0976 29.009ZM22.0976 29.009L22.597 29.0334C22.6008 28.9545 22.6042 28.8756 22.6072 28.7967C22.439 28.8707 22.2691 28.9415 22.0976 29.009ZM21.0699 31.5018C21.0583 31.5047 21.0468 31.5076 21.0352 31.5105L21.1561 31.9956M21.0699 31.5018C21.0795 31.501 21.0891 31.5 21.0987 31.4989L21.1561 31.9956M24.1186 9.11018C24.1531 9.25811 24.1809 9.40716 24.2019 9.5569C24.2092 9.55513 24.2165 9.55338 24.2238 9.55164L24.1186 9.11018ZM24.0509 9.07913L23.622 9.18344C23.6234 9.18899 23.6247 9.19454 23.626 9.20009C23.7659 9.15502 23.9076 9.11466 24.0509 9.07913ZM5.16339 23.1881C5.29393 23.4012 5.48528 23.5697 5.71145 23.6743C5.57842 23.4813 5.45089 23.2854 5.32891 23.0867C5.20798 22.8896 5.0925 22.6899 4.98256 22.4877C4.97138 22.732 5.03339 22.9758 5.16339 23.1881ZM8.89282 23.1558C8.49187 22.5256 7.93436 22.0117 7.27821 21.6589C7.75413 22.225 8.29713 22.7269 8.89282 23.1558ZM9.26003 22.8034C8.8356 22.1661 8.2661 21.6411 7.60228 21.2666C8.08482 21.8535 8.64323 22.3695 9.26003 22.8034ZM4.48269 22.6138C4.49459 22.9069 4.58103 23.1946 4.73703 23.4493C4.88056 23.6836 5.07597 23.8786 5.30529 24.0219C5.32715 24.0356 5.34932 24.0488 5.37178 24.0615C5.35828 24.0423 5.34482 24.0231 5.33141 24.0038C5.18182 23.7887 5.03884 23.5699 4.90255 23.3479C4.7547 23.107 4.61471 22.8622 4.48269 22.6138ZM16.9197 0.00564178L16.9197 0.00573983L16.9197 0.00564178Z" stroke="#D9D9D9" stroke-opacity="0.15"/>
</g>
</svg>
