<svg width="30" height="29" viewBox="0 0 30 29" fill="none" xmlns="http://www.w3.org/2000/svg">
<g id="Vector">
<path d="M14.8529 0.00554691C11.3522 0.00661542 7.9705 1.25402 5.33446 3.51663C2.69842 5.77924 0.986733 8.90366 0.516569 12.311C0.0464049 15.7183 0.849636 19.1774 2.77743 22.0475C4.70522 24.9176 7.62688 27.0041 11.001 27.9203C11.1458 27.9738 11.3003 27.9971 11.4548 27.9886C11.6092 27.9802 11.7602 27.9403 11.898 27.8714C12.0359 27.8024 12.1576 27.7061 12.2554 27.5884C12.3532 27.4707 12.425 27.3343 12.4662 27.1878C12.5073 27.0414 12.517 26.8881 12.4945 26.7378C12.472 26.5875 12.4178 26.4435 12.3355 26.3149C12.2531 26.1863 12.1444 26.0759 12.0162 25.9909C11.8881 25.9058 11.7433 25.8479 11.5911 25.8209C8.78929 25.0674 6.35151 23.3601 4.71317 21.0039C3.07483 18.6478 2.34265 15.7963 2.64741 12.9588C2.95217 10.1213 4.27401 7.48262 6.37683 5.51409C8.47966 3.54555 11.2265 2.37537 14.1267 2.21258C17.0269 2.04979 19.8915 2.90498 22.209 4.62541C24.5264 6.34583 26.1456 8.81943 26.7774 11.6043C27.4093 14.3893 27.0125 17.3041 25.6581 19.8283C24.3037 22.3524 22.0797 24.3214 19.3836 25.3835C19.4538 23.9467 19.3416 22.5069 19.0496 21.0974C20.632 20.7526 22.0429 19.8777 23.0402 18.6228C24.0376 17.3679 24.5592 15.8112 24.5156 14.2198C24.5959 12.7229 24.1863 11.2401 23.3467 9.98832C23.5023 8.74635 23.3496 7.48584 22.9014 6.31447C22.8179 6.07022 22.6493 5.86279 22.4252 5.72876C22.2012 5.59473 21.9362 5.54272 21.6769 5.58189C20.3343 5.76201 19.0512 6.24068 17.9254 6.98147C16.9225 6.71958 15.8905 6.58003 14.8529 6.566C13.7249 6.59519 12.6042 6.75298 11.5132 7.03618C10.4311 6.22311 9.11277 5.77105 7.75058 5.74598C7.51056 5.73206 7.27241 5.79483 7.07175 5.92492C6.87108 6.055 6.71868 6.2454 6.63736 6.46763C6.22908 7.58378 6.08813 8.77731 6.22545 9.95561C5.42668 11.2372 5.02085 12.7177 5.05655 14.2199C5.09779 15.8033 5.66351 17.3303 6.66794 18.5694C7.67238 19.8085 9.06075 20.6922 10.6226 21.0865C10.5511 21.3712 10.4954 21.6596 10.4556 21.9503C9.34239 22.0159 8.69672 21.3489 7.87295 20.332C7.38803 19.5317 6.61878 18.9358 5.71332 18.6591C5.43214 18.6099 5.14244 18.6687 4.90416 18.8234C4.66587 18.978 4.49723 19.2168 4.43312 19.4901C4.37146 19.7637 4.41908 20.0501 4.56616 20.2902C4.71323 20.5303 4.94853 20.7057 5.22349 20.7804C5.40161 20.7804 5.83576 21.3489 6.08066 21.666C6.52424 22.3752 7.13518 22.969 7.86181 23.3972C8.58845 23.8254 9.40939 24.0755 10.2552 24.1262C10.7445 24.1255 11.2314 24.0593 11.7024 23.9293C11.8177 23.8958 11.9267 23.8441 12.0252 23.7763C12.1065 23.7132 12.1746 23.6352 12.2256 23.5466C12.261 23.5193 12.2912 23.486 12.3147 23.4482C12.3436 23.3888 12.366 23.3265 12.3815 23.2624C12.4088 23.191 12.4311 23.118 12.4483 23.0437C12.4446 22.3171 12.6203 21.6005 12.9603 20.9553C13.0987 20.7964 13.1877 20.602 13.217 20.3949C13.2463 20.1879 13.2145 19.977 13.1255 19.7871C13.0365 19.5973 12.8939 19.4364 12.7147 19.3237C12.5355 19.211 12.3271 19.1511 12.1143 19.1511C10.8241 19.0796 9.60915 18.5316 8.71311 17.617C7.81706 16.7025 7.3062 15.489 7.28298 14.2199C7.22785 13.0514 7.56844 11.8979 8.25149 10.9397C8.36227 10.8176 8.44378 10.6728 8.49002 10.5157C8.53626 10.3586 8.54605 10.1934 8.51867 10.0321C8.39057 9.36374 8.39057 8.67773 8.51868 8.00933C9.24715 8.16085 9.91803 8.50925 10.4557 9.01525C10.6008 9.15204 10.7809 9.24765 10.9769 9.29193C11.1729 9.33621 11.3775 9.3275 11.5689 9.26673C12.6387 8.967 13.7412 8.79446 14.8529 8.75281C15.8534 8.77737 16.8458 8.93554 17.8029 9.22296C17.9894 9.29084 18.1911 9.30838 18.3869 9.27377C18.5826 9.23916 18.7654 9.15365 18.9161 9.02614C19.5647 8.50126 20.3259 8.12744 21.1426 7.93272C21.3095 8.6192 21.3095 9.33465 21.1425 10.0211C21.099 10.2181 21.109 10.4228 21.1715 10.6147C21.2341 10.8066 21.3469 10.979 21.4988 11.1145C22.1522 12.0144 22.4346 13.1238 22.2891 14.2198C22.3154 14.8625 22.2067 15.5036 21.97 16.1032C21.7333 16.7029 21.3736 17.2484 20.9132 17.7057C20.4527 18.1631 19.9015 18.5225 19.2936 18.7618C18.6858 19.001 18.0344 19.1149 17.3798 19.0964C17.1524 19.0957 16.9301 19.1634 16.7431 19.2905C16.556 19.4176 16.413 19.5979 16.3334 19.8072C16.2526 20.0165 16.2392 20.2451 16.2949 20.4621C16.3507 20.6792 16.4729 20.8742 16.6451 21.0208C17.3019 21.5785 17.2017 25.3945 17.1683 26.8815C17.1639 27.0513 17.1999 27.2197 17.2733 27.3734C17.3467 27.5271 17.4556 27.6619 17.5913 27.7672C17.7886 27.9176 18.0317 27.9985 18.2815 27.9968C18.3739 28.0075 18.4673 28.0075 18.5598 27.9968C21.9913 27.1415 24.9847 25.0805 26.9733 22.2036C28.962 19.3268 29.8081 15.8337 29.3515 12.3855C28.8948 8.93728 27.1671 5.77309 24.4953 3.49171C21.8235 1.21033 18.393 -0.029958 14.8529 0.00554691Z" fill="white"/>
<path d="M14.8579 0.505522L14.8531 0.505571C11.4707 0.506579 8.20477 1.71187 5.66011 3.89604C3.11568 6.08002 1.46517 9.09425 1.01188 12.3793C0.558593 15.6643 1.33277 19 3.19249 21.7687C5.05237 24.5377 7.87258 26.5527 11.1321 27.4377L11.1535 27.4436L11.1744 27.4513C11.2549 27.481 11.3412 27.4941 11.4276 27.4894C11.5139 27.4847 11.598 27.4623 11.6745 27.4241C11.7508 27.3859 11.8176 27.3329 11.8709 27.2688C11.9241 27.2047 11.9628 27.131 11.9848 27.0526C12.0069 26.9741 12.012 26.8922 12 26.8119C11.9879 26.7315 11.9589 26.6541 11.9144 26.5845C11.8698 26.5148 11.8105 26.4544 11.7398 26.4075C11.6691 26.3606 11.5887 26.3283 11.5037 26.3132L11.4822 26.3094L11.4612 26.3038C8.54689 25.52 6.00914 23.7435 4.30266 21.2894C2.59602 18.835 1.83258 15.8633 2.15027 12.9054C2.46795 9.94755 3.84573 7.19866 6.03513 5.14907C8.22434 3.09967 11.0825 1.88267 14.0987 1.71337C17.1148 1.54407 20.095 2.43332 22.507 4.22394C24.9192 6.01472 26.6065 8.59096 27.265 11.4937C27.9236 14.3966 27.5099 17.4347 26.0987 20.0647C24.6875 22.6944 22.3717 24.7437 19.5668 25.8487L18.8464 26.1326L18.8842 25.3591C18.9523 23.9645 18.8435 22.567 18.56 21.1988L18.4596 20.7142L18.9432 20.6088C20.4142 20.2883 21.724 19.4754 22.6488 18.3117C23.5735 17.1483 24.0561 15.7064 24.0158 14.2335L24.0152 14.2132L24.0163 14.193C24.0908 12.8049 23.7111 11.4291 22.9315 10.2668L22.8274 10.1116L22.8506 9.92615C22.996 8.7658 22.8533 7.58799 22.4345 6.49313L22.4312 6.48474L22.4283 6.47624C22.3836 6.34527 22.2924 6.23192 22.1685 6.15784C22.0445 6.08365 21.8967 6.05435 21.7516 6.07628L21.7434 6.07752L21.7434 6.07745C20.4748 6.24764 19.263 6.69987 18.2002 7.39916L18.0143 7.52147L17.799 7.46525C16.8384 7.21439 15.85 7.08033 14.856 7.06609C13.7693 7.09496 12.6897 7.24734 11.6389 7.52014L11.4056 7.5807L11.2129 7.43592C10.2155 6.68648 8.99913 6.26904 7.74137 6.24589L7.73149 6.24571L7.72162 6.24514C7.58722 6.23734 7.45459 6.2726 7.34372 6.34447C7.23299 6.41626 7.15055 6.52019 7.1069 6.63947C6.72544 7.68235 6.59384 8.79721 6.72209 9.89773L6.74234 10.0716L6.64977 10.2201C5.90244 11.4191 5.52316 12.8034 5.55639 14.2073C5.59484 15.6796 6.12087 17.1005 7.05636 18.2546C7.99207 19.4089 9.28672 20.2336 10.745 20.6017L11.2291 20.7239L11.1075 21.2082C11.0405 21.4752 10.9883 21.7455 10.951 22.018L10.8953 22.4252L10.485 22.4494C9.09112 22.5316 8.29733 21.6502 7.48444 20.6468L7.46298 20.6203L7.44531 20.5911C7.03074 19.9069 6.37507 19.3929 5.59994 19.1475C5.45122 19.1281 5.30058 19.1621 5.17639 19.2428C5.04555 19.3277 4.95506 19.4569 4.92041 19.6022C4.88821 19.7476 4.91352 19.9 4.99252 20.029C5.06704 20.1506 5.18481 20.2437 5.32556 20.2892C5.42165 20.3059 5.49713 20.3424 5.54236 20.3673C5.61054 20.4048 5.67062 20.4502 5.71913 20.4908C5.81655 20.5724 5.91412 20.6745 6.00091 20.7723C6.16584 20.958 6.33604 21.1785 6.45484 21.3325C6.46222 21.342 6.46941 21.3513 6.47638 21.3604L6.49148 21.3799L6.50457 21.4009C6.90521 22.0414 7.4576 22.5786 8.11567 22.9664C8.76942 23.3517 9.50806 23.578 10.2699 23.6261C10.708 23.6242 11.1438 23.5644 11.5656 23.4484C11.6237 23.4312 11.6786 23.4058 11.7286 23.3732C11.7546 23.3512 11.7761 23.3253 11.7925 23.2969L11.8418 23.2112L11.8864 23.1769C11.8898 23.1663 11.8929 23.1557 11.8955 23.1449L11.903 23.1135L11.9146 23.0833C11.9275 23.0498 11.9387 23.0157 11.9484 22.9811C11.9548 22.1945 12.15 21.4205 12.518 20.7221L12.5451 20.6707L12.5833 20.6269C12.6586 20.5404 12.7063 20.4355 12.7219 20.3249C12.7376 20.2144 12.7207 20.1015 12.6728 19.9994C12.6249 19.8972 12.5474 19.8092 12.4485 19.747C12.3494 19.6847 12.2335 19.6511 12.1143 19.6511L12.1005 19.6511L12.0866 19.6504C10.6731 19.572 9.34022 18.9716 8.35595 17.9669C7.37313 16.9638 6.81058 15.6316 6.7832 14.2363C6.72449 12.9575 7.09804 11.6964 7.84435 10.6494L7.86147 10.6254L7.88129 10.6036C7.9417 10.537 7.98559 10.4587 8.01038 10.3745C8.03474 10.2917 8.04018 10.205 8.02644 10.1201C7.88759 9.39148 7.88799 8.64375 8.02762 7.91521L8.12323 7.41637L8.62051 7.5198C9.43855 7.68995 10.193 8.0814 10.7984 8.65115L10.7986 8.6514C10.8781 8.72632 10.9777 8.77949 11.0871 8.80422C11.1966 8.82895 11.3109 8.82405 11.4176 8.79018L11.4257 8.78758L11.434 8.78527C12.5417 8.47492 13.6833 8.29629 14.8342 8.25316L14.8497 8.25258L14.8652 8.25296C15.9102 8.27862 16.9469 8.44382 17.9467 8.74409L17.9604 8.74821L17.9739 8.7531C18.0777 8.7909 18.1904 8.80075 18.2998 8.78141C18.4092 8.76206 18.5104 8.71442 18.5932 8.64441L18.6015 8.63738L18.6016 8.63747C19.3086 8.0653 20.1377 7.65828 21.0266 7.44636L21.5108 7.33092L21.6284 7.81455C21.8138 8.57669 21.8142 9.37104 21.6298 10.1333C21.6066 10.2417 21.6125 10.3541 21.6469 10.4598C21.6818 10.567 21.7452 10.6643 21.8317 10.7415L21.8718 10.7773L21.9033 10.8207C22.6231 11.8119 22.9398 13.0327 22.7903 14.2426C22.8129 14.9406 22.692 15.6359 22.4351 16.2868C22.1729 16.9512 21.7746 17.5548 21.2655 18.0605C20.7565 18.5661 20.1475 18.963 19.4768 19.227C18.8083 19.4902 18.0923 19.6158 17.373 19.5964M14.8579 0.505522L17.3798 19.0964M14.8579 0.505522C18.2783 0.471218 21.5915 1.66965 24.1707 3.87195C26.7496 6.07406 28.4155 9.12666 28.8558 12.4512C29.296 15.7756 28.4806 19.144 26.562 21.9193C24.6502 24.685 21.7744 26.6713 18.4742 27.5028M14.8579 0.505522L17.8961 27.3708M17.373 19.5964C17.3706 19.5964 17.3681 19.5963 17.3657 19.5962L17.3798 19.0964M17.373 19.5964C17.3747 19.5964 17.3765 19.5964 17.3782 19.5964L17.3798 19.0964M17.373 19.5964C17.2475 19.5971 17.1258 19.635 17.024 19.7041C16.9208 19.7742 16.8435 19.8725 16.8007 19.9849L16.7999 19.9872C16.7565 20.0995 16.7494 20.2217 16.7792 20.3378C16.809 20.4539 16.8748 20.5597 16.9693 20.6402M17.3798 19.0964C17.1524 19.0957 16.9301 19.1634 16.7431 19.2905C16.556 19.4176 16.413 19.5979 16.3334 19.8072C16.2526 20.0165 16.2392 20.2451 16.2949 20.4621C16.3507 20.6792 16.4729 20.8742 16.6451 21.0208M16.9693 20.6402C16.9691 20.64 16.9689 20.6398 16.9687 20.6397L16.6451 21.0208M16.9693 20.6402C17.1487 20.7928 17.2558 21.0094 17.3259 21.1967C17.4004 21.3961 17.4567 21.629 17.5008 21.8744C17.589 22.3662 17.6382 22.9677 17.665 23.5808C17.7165 24.7588 17.6874 26.0412 17.6703 26.7973C17.6696 26.8301 17.6688 26.862 17.6681 26.8927L17.6681 26.8943C17.6658 26.9849 17.685 27.0751 17.7245 27.1579C17.7638 27.2401 17.8223 27.3132 17.8961 27.3708M16.9693 20.6402L16.6451 21.0208M16.6451 21.0208L17.8961 27.3708M17.8961 27.3708C17.8955 27.3704 17.895 27.37 17.8944 27.3695L17.5913 27.7671L17.8977 27.372C17.8972 27.3716 17.8966 27.3712 17.8961 27.3708ZM17.8961 27.3708C18.0045 27.4528 18.1389 27.4977 18.2781 27.4968L18.3086 27.4966L18.3389 27.5001C18.3838 27.5053 18.4291 27.5062 18.4742 27.5028M18.4742 27.5028C18.4624 27.5057 18.4506 27.5087 18.4389 27.5116L18.5598 27.9968L18.5024 27.5001C18.493 27.5012 18.4836 27.5021 18.4742 27.5028ZM14.8529 0.00560777L14.8529 0.00554691L14.8529 0.00560777Z" stroke="#D9D9D9" stroke-opacity="0.15"/>
</g>
</svg>
