<svg width="42" height="41" viewBox="0 0 42 41" fill="none" xmlns="http://www.w3.org/2000/svg">
<g id="Vector">
<path d="M21.0533 0.00583152C16.0522 0.00735796 11.2212 1.78937 7.45544 5.02167C3.68967 8.25397 1.24441 12.7174 0.572742 17.585C-0.0989208 22.4526 1.04855 27.3942 3.80254 31.4944C6.55653 35.5945 10.7303 38.5752 15.5506 39.884C15.7574 39.9604 15.9781 39.9937 16.1988 39.9817C16.4194 39.9696 16.635 39.9126 16.832 39.8141C17.0289 39.7157 17.2028 39.578 17.3425 39.4099C17.4823 39.2418 17.5848 39.0469 17.6436 38.8377C17.7024 38.6285 17.7162 38.4095 17.684 38.1948C17.6519 37.9801 17.5745 37.7743 17.4569 37.5906C17.3393 37.4068 17.184 37.2492 17.0009 37.1277C16.8178 37.0062 16.6109 36.9235 16.3934 36.885C12.3909 35.8085 8.90837 33.3694 6.56789 30.0035C4.22741 26.6376 3.18143 22.564 3.6168 18.5105C4.05217 14.4569 5.94052 10.6874 8.94455 7.87517C11.9486 5.06298 15.8726 3.3913 20.0158 3.15874C24.1589 2.92618 28.2513 4.14789 31.5619 6.60563C34.8725 9.06338 37.1857 12.5971 38.0883 16.5755C38.9909 20.554 38.4241 24.7181 36.4892 28.324C34.5543 31.9299 31.3773 34.7427 27.5256 36.2601C27.6259 34.2075 27.4657 32.1507 27.0486 30.137C29.3091 29.6445 31.3246 28.3947 32.7494 26.6019C34.1742 24.8092 34.9193 22.5853 34.857 20.3119C34.9718 18.1735 34.3867 16.0551 33.1872 14.2669C33.4096 12.4927 33.1913 10.692 32.5511 9.01858C32.4318 8.66965 32.1909 8.37332 31.8709 8.18185C31.5508 7.99038 31.1722 7.91608 30.8018 7.97204C28.8838 8.22934 27.0508 8.91317 25.4425 9.97144C24.0097 9.5973 22.5356 9.39795 21.0532 9.3779C19.4418 9.41961 17.8407 9.64502 16.2823 10.0496C14.7364 8.88807 12.853 8.24226 10.907 8.20645C10.5642 8.18656 10.2239 8.27624 9.93728 8.46208C9.65062 8.64791 9.43291 8.91991 9.31672 9.23738C8.73347 10.8319 8.53212 12.5369 8.72828 14.2202C7.58718 16.051 7.00743 18.166 7.05842 20.3121C7.11734 22.574 7.92551 24.7555 9.36042 26.5256C10.7953 28.2958 12.7787 29.5582 15.0099 30.1214C14.9078 30.5282 14.8281 30.9402 14.7714 31.3554C13.1811 31.4492 12.2587 30.4963 11.0819 29.0437C10.3891 27.9003 9.29018 27.049 7.99667 26.6538C7.59498 26.5835 7.18113 26.6675 6.84073 26.8884C6.50032 27.1094 6.2594 27.4504 6.16781 27.841C6.07973 28.2318 6.14776 28.6409 6.35787 28.9839C6.56797 29.3268 6.90411 29.5775 7.29692 29.6841C7.55137 29.6841 8.17158 30.4964 8.52145 30.9493C9.15513 31.9625 10.0279 32.8108 11.0659 33.4225C12.104 34.0342 13.2768 34.3914 14.4851 34.4638C15.184 34.4629 15.8796 34.3683 16.5525 34.1827C16.7172 34.1347 16.873 34.0609 17.0137 33.964C17.1298 33.8738 17.227 33.7624 17.2999 33.636C17.3505 33.5969 17.3936 33.5493 17.4272 33.4954C17.4685 33.4104 17.5005 33.3214 17.5226 33.2298C17.5616 33.128 17.5935 33.0236 17.618 32.9174C17.6127 31.8795 17.8638 30.8558 18.3496 29.934C18.5472 29.7071 18.6744 29.4293 18.7162 29.1335C18.7581 28.8377 18.7127 28.5364 18.5855 28.2652C18.4583 27.994 18.2546 27.7643 17.9986 27.6032C17.7426 27.4422 17.445 27.3567 17.1409 27.3567C15.2978 27.2545 13.5621 26.4716 12.2821 25.1651C11.002 23.8586 10.2722 22.125 10.239 20.312C10.1603 18.6428 10.6468 16.9949 11.6226 15.626C11.7809 15.4517 11.8973 15.2447 11.9634 15.0203C12.0294 14.796 12.0434 14.5599 12.0043 14.3295C11.8213 13.3747 11.8213 12.3947 12.0043 11.4398C13.045 11.6563 14.0034 12.154 14.7715 12.8768C14.9788 13.0722 15.2361 13.2088 15.5161 13.2721C15.7961 13.3353 16.0884 13.3229 16.3618 13.2361C17.89 12.8079 19.4651 12.5614 21.0532 12.5019C22.4825 12.537 23.9003 12.763 25.2675 13.1736C25.534 13.2705 25.822 13.2956 26.1017 13.2462C26.3814 13.1967 26.6425 13.0745 26.8578 12.8924C27.7844 12.1426 28.8718 11.6085 30.0384 11.3304C30.277 12.311 30.277 13.3331 30.0384 14.3138C29.9762 14.5951 29.9905 14.8876 30.0798 15.1618C30.1691 15.436 30.3304 15.6822 30.5473 15.8758C31.4808 17.1613 31.8843 18.7462 31.6764 20.3119C31.7139 21.23 31.5587 22.1458 31.2205 23.0025C30.8824 23.8592 30.3685 24.6385 29.7107 25.2918C29.053 25.9452 28.2655 26.4587 27.3971 26.8005C26.5288 27.1422 25.5982 27.305 24.6631 27.2785C24.3382 27.2775 24.0207 27.3743 23.7534 27.5558C23.4862 27.7373 23.2819 27.9949 23.1682 28.2939C23.0528 28.5929 23.0336 28.9195 23.1133 29.2295C23.1929 29.5396 23.3675 29.8182 23.6135 30.0277C24.5518 30.8243 24.4086 36.2757 24.3609 38.4001C24.3547 38.6426 24.4061 38.8831 24.5109 39.1028C24.6158 39.3224 24.7714 39.515 24.9652 39.6653C25.2471 39.8802 25.5944 39.9957 25.9512 39.9933C26.0833 40.0086 26.2167 40.0086 26.3488 39.9933C31.251 38.7715 35.5271 35.8271 38.3681 31.7174C41.2091 27.6076 42.4178 22.6175 41.7654 17.6915C41.1131 12.7655 38.645 8.24518 34.8281 4.98607C31.0113 1.72695 26.1105 -0.0448898 21.0533 0.00583152Z" fill="white"/>
<path d="M21.0583 0.505806L21.0534 0.505855C16.1708 0.507322 11.4555 2.24721 7.7811 5.40107C4.10693 8.55474 1.72284 12.908 1.06805 17.6533C0.413267 22.3986 1.53169 27.2168 4.2176 31.2156C6.90368 35.2146 10.976 38.1238 15.6816 39.4015L15.703 39.4073L15.7239 39.415C15.8665 39.4677 16.019 39.4907 16.1715 39.4824C16.3241 39.4741 16.4729 39.4346 16.6084 39.3669C16.7439 39.2992 16.8628 39.2048 16.958 39.0903C17.0532 38.9758 17.1225 38.8436 17.1622 38.7024C17.2019 38.5612 17.2112 38.4136 17.1895 38.2688C17.1678 38.1241 17.1156 37.9849 17.0358 37.8602C16.9559 37.7354 16.85 37.6277 16.7244 37.5443C16.5988 37.461 16.4563 37.4039 16.3061 37.3773L16.2846 37.3734L16.2636 37.3678C12.1485 36.261 8.566 33.7529 6.15738 30.289C3.74859 26.8248 2.67136 22.6311 3.11966 18.4571C3.56795 14.2832 5.51223 10.4034 8.60285 7.51016C11.6933 4.6171 15.7286 2.89859 19.9877 2.65952C24.2468 2.42046 28.4547 3.67622 31.8599 6.20417C35.2653 8.73227 37.6465 12.3686 38.5759 16.4649C39.5053 20.5613 38.9215 24.8486 36.9298 28.5604C34.9382 32.2719 31.6693 35.1651 27.7089 36.7253L26.9884 37.0091L27.0262 36.2357C27.1245 34.2253 26.9675 32.2108 26.559 30.2384L26.4586 29.7538L26.9421 29.6485C29.0913 29.1802 31.0057 27.9924 32.358 26.2909C33.7101 24.5896 34.4163 22.4805 34.3572 20.3256L34.3567 20.3054L34.3577 20.2851C34.4667 18.2555 33.9114 16.2442 32.772 14.5455L32.6679 14.3902L32.6911 14.2048C32.9032 12.5121 32.6951 10.7941 32.0841 9.19724L32.0809 9.18885L32.078 9.18035C31.9975 8.9447 31.834 8.74245 31.6142 8.61093C31.3941 8.4793 31.1327 8.42771 30.8765 8.46643L30.8683 8.46767L30.8683 8.4676C29.0242 8.71497 27.2625 9.37235 25.7173 10.3891L25.5314 10.5114L25.3161 10.4552C23.9257 10.0921 22.495 9.89825 21.0563 9.87799C19.4862 9.91938 17.9263 10.1394 16.4079 10.5336L16.1746 10.5941L15.9819 10.4493C14.5207 9.35144 12.7394 8.74026 10.8978 8.70636L10.8879 8.70618L10.8781 8.70561C10.6408 8.69185 10.4061 8.75401 10.2093 8.88163C10.0125 9.00915 9.8648 9.19466 9.78629 9.40914C9.22983 10.9304 9.03782 12.5568 9.22492 14.1623L9.24518 14.3362L9.15261 14.4847C8.06292 16.233 7.50971 18.2518 7.55827 20.2997C7.61443 22.4504 8.38291 24.5257 9.74884 26.2108C11.115 27.8962 13.0047 29.0996 15.1323 29.6367L15.6165 29.7589L15.4949 30.2432C15.3972 30.6322 15.321 31.0261 15.2668 31.4232L15.2111 31.8304L14.8008 31.8546C12.9298 31.9648 11.8593 30.7977 10.6933 29.3584L10.6719 29.3319L10.6542 29.3028C10.0316 28.2751 9.0458 27.5056 7.88206 27.1417C7.61314 27.1017 7.33888 27.1612 7.11296 27.3078C6.87999 27.4591 6.71723 27.6906 6.6551 27.953C6.59648 28.2156 6.64219 28.4908 6.78423 28.7227C6.92067 28.9454 7.13687 29.1129 7.39298 29.1915C7.50305 29.2083 7.59215 29.2504 7.64918 29.2818C7.72996 29.3262 7.80398 29.3817 7.8674 29.4348C7.99464 29.5413 8.1259 29.6782 8.24728 29.8149C8.47778 30.0745 8.71675 30.3841 8.88717 30.6049L8.91716 30.6437L8.93226 30.6633L8.94536 30.6842C9.5361 31.6287 10.3503 32.4204 11.3198 32.9917C12.285 33.5605 13.3755 33.894 14.4998 33.9638C15.1476 33.9616 15.7922 33.8734 16.4159 33.7017C16.5236 33.67 16.6253 33.6224 16.7177 33.5606C16.7782 33.5115 16.8287 33.4523 16.8668 33.3862L16.9162 33.3006L16.9941 33.2404C17.0118 33.1989 17.026 33.1561 17.0366 33.1124L17.0442 33.081L17.0557 33.0508C17.0801 32.9874 17.1008 32.9227 17.118 32.8571C17.1225 31.7583 17.3931 30.6764 17.9072 29.7009L17.9343 29.6495L17.9725 29.6056C18.1071 29.451 18.193 29.2628 18.2212 29.0635C18.2493 28.8643 18.2189 28.661 18.1328 28.4775C18.0467 28.2939 17.9082 28.137 17.7324 28.0265C17.5566 27.9159 17.3513 27.8567 17.141 27.8567L17.1271 27.8567L17.1133 27.8559C15.1468 27.7469 13.2932 26.9116 11.9249 25.515C10.5581 24.1199 9.77659 22.2676 9.73926 20.3284C9.65693 18.5489 10.1764 16.7934 11.2155 15.3358L11.2326 15.3118L11.2524 15.2899C11.3603 15.1711 11.4391 15.0306 11.4837 14.8791C11.5279 14.7292 11.5375 14.5717 11.5121 14.4178C11.3183 13.4026 11.3187 12.3608 11.5133 11.3457L11.6089 10.8468L12.1062 10.9503C13.2364 11.1854 14.2784 11.7261 15.1141 12.5127L15.1144 12.513C15.2561 12.6465 15.4329 12.7407 15.6263 12.7844C15.8198 12.8281 16.0218 12.8195 16.2105 12.7595L16.2186 12.7569L16.2269 12.7546C17.7931 12.3158 19.4071 12.0632 21.0345 12.0023L21.05 12.0017L21.0655 12.0021C22.5393 12.0383 24.0013 12.2712 25.4113 12.6947L25.425 12.6988L25.4385 12.7037C25.6223 12.7706 25.8213 12.788 26.0147 12.7538C26.208 12.7196 26.3875 12.6353 26.5349 12.5107L26.5432 12.5036L26.5433 12.5037C27.5283 11.7066 28.6836 11.1394 29.9225 10.844L30.4066 10.7286L30.5243 11.2122C30.7812 12.2686 30.7817 13.3697 30.5256 14.4262C30.4839 14.6189 30.494 14.819 30.5552 15.0069C30.6169 15.1963 30.7287 15.3675 30.8802 15.5028L30.9203 15.5385L30.9519 15.582C31.9517 16.9588 32.3895 18.6551 32.1776 20.3347C32.2114 21.3081 32.044 22.2782 31.6856 23.1861C31.3219 24.1075 30.7695 24.9449 30.0631 25.6465C29.3567 26.3482 28.5115 26.8992 27.5803 27.2657C26.6512 27.6314 25.6559 27.8059 24.656 27.7785M21.0583 0.505806L30.5473 15.8758C31.4808 17.1613 31.8843 18.7462 31.6764 20.3119C31.7139 21.23 31.5587 22.1458 31.2205 23.0025C30.8824 23.8592 30.3685 24.6385 29.7107 25.2918C29.053 25.9452 28.2655 26.4587 27.3971 26.8005C26.5288 27.1422 25.5982 27.305 24.6631 27.2785C24.3382 27.2775 24.0207 27.3743 23.7534 27.5558C23.4862 27.7373 23.2819 27.9949 23.1682 28.2939C23.0528 28.5929 23.0336 28.9195 23.1133 29.2295C23.1929 29.5396 23.3675 29.8182 23.6135 30.0277M21.0583 0.505806C25.9958 0.456286 30.7792 2.18627 34.5034 5.36631C38.2274 8.54615 40.6338 12.9548 41.2698 17.7571C41.9057 22.5594 40.7276 27.4248 37.9568 31.4331C35.1924 35.4321 31.0332 38.3018 26.2617 39.4997M21.0583 0.505806L26.3488 39.9933M24.656 27.7785C24.6536 27.7785 24.6513 27.7784 24.649 27.7783L24.6631 27.2786L24.6615 27.7785C24.6597 27.7785 24.6578 27.7785 24.656 27.7785ZM24.656 27.7785C24.4331 27.7789 24.2163 27.8458 24.0344 27.9694C23.8511 28.0939 23.7124 28.2695 23.6355 28.4716L23.6347 28.4739C23.5567 28.6759 23.5439 28.8961 23.5976 29.1052C23.6513 29.3143 23.7694 29.5037 23.9377 29.647M23.9377 29.647C23.9375 29.6468 23.9373 29.6467 23.9371 29.6465L23.6135 30.0277M23.9377 29.647L23.6135 30.0277M23.9377 29.647C24.1523 29.8295 24.2896 30.0979 24.3853 30.3539C24.4856 30.6222 24.5633 30.941 24.625 31.2849C24.7486 31.9736 24.8183 32.8218 24.8565 33.6941C24.9297 35.3696 24.8883 37.1954 24.8638 38.2762C24.8628 38.3226 24.8617 38.3677 24.8608 38.4113L24.8607 38.4129C24.8565 38.5762 24.8911 38.7386 24.9621 38.8873C25.0329 39.0354 25.138 39.1662 25.27 39.2689M23.6135 30.0277C24.5329 30.8083 24.4139 36.058 24.3639 38.2677C24.3629 38.3131 24.3619 38.3573 24.3609 38.4001C24.3547 38.6426 24.4061 38.8831 24.5109 39.1028C24.6158 39.3224 24.7714 39.515 24.9652 39.6653M25.27 39.2689C25.2695 39.2685 25.2689 39.2681 25.2683 39.2676L24.9652 39.6653M25.27 39.2689C25.2706 39.2693 25.2711 39.2698 25.2716 39.2702L24.9652 39.6653M25.27 39.2689C25.463 39.4154 25.7016 39.495 25.9478 39.4933L25.9783 39.4931L26.0086 39.4966C26.0926 39.5063 26.1775 39.5073 26.2617 39.4997M24.9652 39.6653C25.2471 39.8802 25.5944 39.9957 25.9512 39.9933C26.0833 40.0086 26.2167 40.0086 26.3488 39.9933M26.2617 39.4997C26.2504 39.5025 26.2391 39.5053 26.2279 39.5081L26.3488 39.9933M26.2617 39.4997C26.2716 39.4988 26.2815 39.4977 26.2914 39.4966L26.3488 39.9933M21.0533 0.00583152L21.0533 0.00592957L21.0533 0.00583152Z" stroke="#D9D9D9" stroke-opacity="0.15"/>
</g>
</svg>
