<svg width="35" height="36" viewBox="0 0 35 36" fill="none" xmlns="http://www.w3.org/2000/svg">
<path id="Vector" d="M34.5419 18.1484C34.5437 19.3789 33.6459 20.3441 32.6268 20.3456L30.7086 20.3484L30.7665 31.2926C30.7668 31.484 30.755 31.6618 30.7373 31.8464L30.7389 32.9538C30.7411 34.4645 29.6699 35.6897 28.3451 35.6917L27.386 35.6931C27.32 35.6932 27.254 35.6317 27.1881 35.6865C27.1041 35.6319 27.0203 35.6936 26.9364 35.6937L23.5495 35.6987C22.2247 35.7006 21.1499 34.4785 21.1477 32.9678L21.1389 26.9522C21.1372 25.7422 20.2785 24.7659 19.2175 24.7674L15.381 24.773C14.32 24.7746 13.4642 25.7534 13.4659 26.9633L13.4747 32.9789C13.4769 34.4897 12.4057 35.7149 11.0809 35.7168L7.72995 35.7217C7.64003 35.7218 7.5501 35.7151 7.46017 35.7084C7.38825 35.7153 7.31633 35.7223 7.24439 35.7224L6.28527 35.7238C4.96108 35.7257 3.88568 34.5037 3.88348 32.9929L3.87233 25.3367C3.87224 25.2751 3.87394 25.2068 3.87745 25.1453L3.87052 20.3874L1.94987 20.3902C0.869062 20.3918 0.0272272 19.4292 0.0254353 18.1987C0.0245393 17.5835 0.203818 17.0363 0.623097 16.5572L15.9702 1.25762C16.3891 0.777539 16.8686 0.708345 17.2882 0.707734C17.7078 0.707122 18.1876 0.843416 18.5537 1.18536L33.8801 16.5088C34.3603 16.9866 34.6069 17.5331 34.5419 18.1484Z" fill="#FFFBFB"/>
</svg>
