<svg width="41" height="42" viewBox="0 0 41 42" fill="none" xmlns="http://www.w3.org/2000/svg">
<path id="Vector" d="M40.0172 20.8919C40.0193 22.3175 38.9792 23.4356 37.7986 23.4373L35.5763 23.4406L35.6434 36.1196C35.6437 36.3414 35.6301 36.5473 35.6096 36.7612L35.6114 38.0441C35.614 39.7944 34.3729 41.2138 32.8382 41.216L31.727 41.2176C31.6506 41.2177 31.5741 41.1466 31.4978 41.21C31.4005 41.1468 31.3034 41.2182 31.2061 41.2184L27.2824 41.2241C25.7476 41.2263 24.5024 39.8105 24.4999 38.0603L24.4897 31.0912C24.4877 29.6894 23.4929 28.5584 22.2637 28.5601L17.8191 28.5666C16.5899 28.5684 15.5984 29.7023 15.6005 31.1041L15.6106 38.0733C15.6132 39.8235 14.3721 41.2429 12.8373 41.2451L8.95524 41.2508C8.85107 41.2509 8.74689 41.2432 8.64271 41.2354C8.55938 41.2434 8.47606 41.2515 8.39272 41.2516L7.28156 41.2532C5.74747 41.2554 4.50161 39.8397 4.49906 38.0894L4.48614 29.2196C4.48604 29.1483 4.48801 29.0691 4.49207 28.9978L4.48404 23.4859L2.25895 23.4891C1.00682 23.4909 0.031543 22.3757 0.0294671 20.9502C0.0284291 20.2374 0.236126 19.6036 0.721866 19.0485L18.5017 1.32371C18.987 0.767523 19.5425 0.687361 20.0286 0.686653C20.5147 0.685945 21.0705 0.843843 21.4947 1.23999L39.2505 18.9924C39.8069 19.5459 40.0926 20.1791 40.0172 20.8919Z" fill="#FFFBFB"/>
</svg>
