<svg width="89" height="89" viewBox="0 0 89 89" fill="none" xmlns="http://www.w3.org/2000/svg">
<path d="M0.872803 0.876221L0.872803 88.3762L88.3728 88.3762L88.3728 0.876221L0.872803 0.876221ZM47.7478 68.845C47.7478 77.3625 42.7166 81.5149 35.4333 81.5149C28.8552 81.5149 25.0369 78.1086 23.0994 73.9973L29.7947 69.9446C31.0857 72.2356 32.0662 74.1731 34.8845 74.1731C37.2283 74.1731 39.1541 73.1165 39.1541 69.0051L39.1541 41.5012L47.7478 41.5012L47.7478 68.845ZM67.1521 81.3196C59.5173 81.3196 54.5837 77.8743 52.1755 73.1165L58.8806 69.2356C60.6384 72.1145 62.9333 74.0325 66.9861 74.0325C70.3923 74.0325 72.3709 72.5247 72.3709 70.175C72.3709 67.3567 70.3337 66.3586 66.574 64.7063L64.5193 63.8235C58.5857 61.3001 54.6521 58.1282 54.6521 51.4309C54.6521 45.2649 59.3494 40.761 66.6912 40.761C71.9197 40.761 75.6755 42.386 78.3806 47.1438L71.9666 51.2668C70.5564 48.7415 69.0369 47.7512 66.6814 47.7512C64.2732 47.7512 62.7459 49.2786 62.7459 51.2668C62.7459 53.7336 64.2732 54.7317 67.7966 56.259L69.8513 57.1399C76.8416 60.136 80.7771 63.1946 80.7771 70.0618C80.779 77.4641 74.9646 81.3196 67.1521 81.3196Z" fill="white"/>
</svg>
