<svg width="32" height="32" viewBox="0 0 32 32" fill="none" xmlns="http://www.w3.org/2000/svg">
<g id="in linkedin portfolio social media">
<g id="Vector">
<path d="M4.38596 0.000220853C3.51854 0.000225459 2.67061 0.252871 1.94938 0.726208C1.22815 1.19954 0.666022 1.87231 0.334074 2.65944C0.00212576 3.44657 -0.0847306 4.3127 0.0844885 5.1483C0.253708 5.98391 0.671402 6.75146 1.28475 7.35389C1.8981 7.95633 2.67956 8.36659 3.5303 8.5328C4.38104 8.69901 5.26286 8.6137 6.06425 8.28766C6.86564 7.96161 7.55059 7.40948 8.0325 6.70109C8.51442 5.99269 8.77164 5.15985 8.77164 4.30787C8.77165 3.1654 8.30959 2.06973 7.48711 1.26189C6.66464 0.454052 5.54912 0.000214677 4.38596 0.000220853ZM4.38592 6.15404C4.01418 6.15404 3.65078 6.04577 3.34168 5.84291C3.03258 5.64006 2.79167 5.35173 2.64941 5.01439C2.50715 4.67705 2.46993 4.30586 2.54246 3.94774C2.61499 3.58962 2.794 3.26067 3.05687 3.00248C3.31974 2.74429 3.65465 2.56846 4.01925 2.49722C4.38386 2.42599 4.76178 2.46254 5.10523 2.60227C5.44868 2.742 5.74223 2.97863 5.94876 3.28222C6.15529 3.58582 6.26552 3.94275 6.26552 4.30788C6.26552 4.79751 6.06749 5.26709 5.715 5.61331C5.3625 5.95953 4.88442 6.15404 4.38592 6.15404Z" fill="white"/>
<path d="M2.22372 1.14422C2.86297 0.724685 3.61546 0.500225 4.38595 0.500221C5.41938 0.500215 6.4087 0.903515 7.13675 1.61861C7.86449 2.3334 8.27165 3.30094 8.27164 4.30787C8.27164 5.05894 8.04493 5.7939 7.6191 6.41986C7.19319 7.04592 6.58688 7.53523 5.87583 7.82452C5.16469 8.11384 4.38168 8.18968 3.62618 8.04208C2.87071 7.89448 2.17798 7.53038 1.63512 6.99718C1.09235 6.46407 0.723769 5.78594 0.574541 5.04906C0.425325 4.31223 0.50183 3.54838 0.794781 2.85373C1.08777 2.15897 1.58456 1.5637 2.22372 1.14422ZM3.06734 6.26093C3.45841 6.51758 3.91726 6.65404 4.38592 6.65404C5.01416 6.65404 5.61844 6.40899 6.06536 5.97002C6.51259 5.53075 6.76552 4.93304 6.76552 4.30788C6.76553 3.84184 6.62478 3.38702 6.36217 3.00098C6.09963 2.61506 5.72743 2.31561 5.29366 2.13913C4.85996 1.96269 4.38322 1.91666 3.92338 2.0065C3.4635 2.09635 3.03986 2.31835 2.70651 2.64577C2.37306 2.97328 2.14493 3.39166 2.05241 3.8485C1.95988 4.30539 2.00745 4.77887 2.18871 5.20868C2.36992 5.63839 2.67617 6.00421 3.06734 6.26093Z" stroke="#D9D9D9" stroke-opacity="0.15"/>
</g>
<g id="Vector_2">
<path d="M7.5186 9.84615L1.2533 9.84618C0.920972 9.84619 0.602251 9.97586 0.367255 10.2067C0.132259 10.4375 0.000239252 10.7505 0.000237487 11.077C0.000235722 11.4034 0.132252 11.7164 0.367246 11.9472C0.602239 12.178 0.920959 12.3077 1.25329 12.3077L6.26553 12.3077L6.26544 29.5384L2.50626 29.5384L2.50633 16C2.50633 15.6736 2.37432 15.3605 2.13932 15.1297C1.90433 14.8989 1.58561 14.7692 1.25328 14.7692C0.920945 14.7692 0.602224 14.8989 0.367228 15.1297C0.132233 15.3605 0.000212637 15.6736 0.000210873 16L0.00013103 30.7692C0.000129266 31.0956 0.132146 31.4086 0.367139 31.6394C0.602132 31.8703 0.920852 31.9999 1.25318 31.9999L7.51848 31.9999C7.85082 31.9999 8.16954 31.8702 8.40453 31.6394C8.63953 31.4086 8.77155 31.0955 8.77155 30.7691L8.77166 11.0769C8.77166 10.7505 8.63964 10.4374 8.40465 10.2066C8.16966 9.97582 7.85094 9.84615 7.5186 9.84615Z" fill="white"/>
<path d="M6.76553 12.3077L6.76553 11.8077L6.26553 11.8077L1.25329 11.8077C1.0507 11.8077 0.858177 11.7286 0.717613 11.5905C0.577353 11.4528 0.500236 11.2678 0.500237 11.077C0.500239 10.8861 0.577358 10.7011 0.717619 10.5634C0.858184 10.4253 1.05071 10.3462 1.2533 10.3462L7.5186 10.3462C7.72119 10.3462 7.91372 10.4253 8.05428 10.5633C8.19454 10.7011 8.27166 10.886 8.27166 11.0769L8.27155 30.7691C8.27155 30.96 8.19443 31.1449 8.05417 31.2827C7.91361 31.4208 7.72108 31.4999 7.51849 31.4999L1.25319 31.4999C1.05059 31.4999 0.85807 31.4208 0.717507 31.2827C0.577247 31.145 0.50013 30.9601 0.500131 30.7692L0.500211 16C0.500212 15.8091 0.577331 15.6242 0.717592 15.4864C0.858157 15.3484 1.05068 15.2692 1.25327 15.2692C1.45587 15.2692 1.64839 15.3484 1.78896 15.4864C1.92921 15.6242 2.00633 15.8091 2.00633 16L2.00626 29.5384L2.00626 30.0384L2.50626 30.0384L6.26544 30.0384L6.76544 30.0384L6.76544 29.5384L6.76553 12.3077Z" stroke="#D9D9D9" stroke-opacity="0.15"/>
</g>
<g id="Vector_3">
<path d="M29.3629 11.6764C28.6448 10.99 27.793 10.453 26.8585 10.0977C25.9241 9.74242 24.9262 9.57612 23.9247 9.60878L22.6716 9.60878C20.9315 9.53101 19.2017 9.90906 17.6594 10.7042C17.6253 10.4018 17.4784 10.1225 17.247 9.92018C17.0156 9.71789 16.7161 9.60697 16.4063 9.60882L10.141 9.60885C9.80867 9.60885 9.48995 9.73852 9.25495 9.96934C9.01995 10.2001 8.88793 10.5132 8.88793 10.8396L8.88783 30.5318C8.88782 30.8582 9.01984 31.1713 9.25483 31.4021C9.48983 31.6329 9.80855 31.7626 10.1409 31.7626L16.4062 31.7626C16.7385 31.7626 17.0572 31.6329 17.2922 31.4021C17.5272 31.1713 17.6592 30.8582 17.6592 30.5318L17.6593 19.4549C17.6593 18.8021 17.9234 18.176 18.3933 17.7143C18.8633 17.2527 19.5008 16.9934 20.1654 16.9934C20.8301 16.9934 21.4675 17.2527 21.9375 17.7143C22.4075 18.176 22.6716 18.8021 22.6715 19.4549L22.6715 30.5318C22.6715 30.8582 22.8035 31.1712 23.0385 31.402C23.2735 31.6328 23.5922 31.7625 23.9245 31.7625L30.1898 31.7625C30.5222 31.7625 30.8409 31.6328 31.0759 31.402C31.3109 31.1712 31.4429 30.8581 31.4429 30.5317L31.443 16.9933C31.479 16.0151 31.3133 15.0399 30.9559 14.1262C30.5984 13.2125 30.0566 12.3792 29.3629 11.6764ZM28.9368 29.301L25.1776 29.301L25.1777 19.4549C25.1777 18.1492 24.6496 16.897 23.7096 15.9738C22.7697 15.0505 21.4948 14.5318 20.1655 14.5318C18.8361 14.5319 17.5612 15.0505 16.6213 15.9738C15.6813 16.8971 15.1532 18.1493 15.1532 19.4549L15.1531 29.301L11.394 29.3011L11.394 12.0704L15.1532 12.0703L15.1532 13.3011C15.1545 13.5441 15.2289 13.7813 15.3671 13.9828C15.5054 14.1843 15.7013 14.3411 15.9301 14.4334C16.1583 14.5277 16.4098 14.5534 16.6529 14.5074C16.896 14.4614 17.1197 14.3457 17.2959 14.1749C18.4864 12.9442 19.4262 12.0703 22.6716 12.0703L23.9246 12.0703C24.5949 12.042 25.2641 12.1462 25.8926 12.3766C26.5211 12.6071 27.0961 12.9591 27.5836 13.4118C28.0407 13.8901 28.3959 14.4533 28.6283 15.0684C28.8607 15.6834 28.9656 16.3379 28.9369 16.9933L28.9368 29.301Z" fill="white"/>
<path d="M23.9247 10.1088L23.9328 10.1088L23.941 10.1085C24.8764 10.078 25.8084 10.2334 26.6808 10.5651C27.551 10.8959 28.3438 11.3952 29.0122 12.0328C29.656 12.6865 30.1586 13.4605 30.4902 14.3084C30.8228 15.1584 30.9768 16.0654 30.9433 16.9749L30.943 16.9841L30.943 16.9933L30.9429 30.5317C30.9429 30.7226 30.8658 30.9075 30.7255 31.0453C30.585 31.1833 30.3924 31.2625 30.1898 31.2625L23.9245 31.2625C23.722 31.2625 23.5294 31.1834 23.3889 31.0453C23.2486 30.9076 23.1715 30.7226 23.1715 30.5318L23.1715 19.4549C23.1716 18.6665 22.8526 17.9123 22.2879 17.3576C21.7235 16.8032 20.9598 16.4934 20.1654 16.4934C19.371 16.4934 18.6074 16.8033 18.043 17.3576C17.4783 17.9123 17.1593 18.6665 17.1593 19.4549L17.1592 30.5318C17.1592 30.7227 17.0821 30.9076 16.9419 31.0454C16.8013 31.1834 16.6088 31.2626 16.4062 31.2626L10.1409 31.2626C9.93829 31.2626 9.74577 31.1835 9.6052 31.0454C9.46494 30.9076 9.38783 30.7227 9.38783 30.5318L9.38793 10.8396C9.38793 10.6487 9.46505 10.4638 9.60531 10.326C9.74588 10.188 9.93841 10.1088 10.141 10.1088L16.4063 10.1088L16.4063 10.1088L16.4093 10.1088C16.5981 10.1077 16.7792 10.1754 16.9179 10.2966C17.0564 10.4177 17.1426 10.5831 17.1625 10.7602L17.2437 11.481L17.8885 11.1486C19.3529 10.3936 20.996 10.0344 22.6493 10.1083L22.6604 10.1088L22.6716 10.1088L23.9247 10.1088ZM28.9368 29.801L29.4368 29.801L29.4368 29.301L29.4369 17.004C29.4669 16.2845 29.351 15.5664 29.0961 14.8916C28.8398 14.2134 28.4483 13.5929 27.945 13.0663L27.9348 13.0556L27.9239 13.0455C27.3875 12.5472 26.7552 12.1603 26.0647 11.9072C25.3777 11.6553 24.6466 11.5408 23.9144 11.5703L22.6716 11.5703C21.007 11.5703 19.8798 11.7939 18.9999 12.2089C18.1232 12.6223 17.5367 13.207 16.9429 13.8208C16.8383 13.9202 16.7054 13.9886 16.5599 14.0161C16.4121 14.0441 16.2592 14.0284 16.121 13.9713L16.121 13.9713L16.1172 13.9697C15.9786 13.9138 15.8615 13.8195 15.7794 13.6999C15.6977 13.5808 15.6542 13.4416 15.6532 13.2997L15.6532 12.0703L15.6532 11.5703L15.1532 11.5703L11.394 11.5704L10.894 11.5704L10.894 12.0704L10.894 29.3011L10.894 29.8011L11.394 29.8011L15.1531 29.801L15.6531 29.801L15.6531 29.301L15.6532 19.4549C15.6532 18.2848 16.1264 17.1607 16.9716 16.3305C17.8172 15.5 18.9659 15.0319 20.1655 15.0318C21.365 15.0318 22.5137 15.5 23.3593 16.3305C24.2045 17.1607 24.6777 18.2847 24.6777 19.4549L24.6776 29.301L24.6776 29.801L25.1776 29.801L28.9368 29.801Z" stroke="#D9D9D9" stroke-opacity="0.15"/>
</g>
</g>
</svg>
