<svg width="40" height="41" viewBox="0 0 40 41" fill="none" xmlns="http://www.w3.org/2000/svg">
<g id="in linkedin portfolio social media">
<g id="Vector">
<path d="M5.82052 0.00558613C4.73625 0.00559188 3.67634 0.321398 2.7748 0.913069C1.87327 1.50474 1.1706 2.3457 0.755666 3.32961C0.340731 4.31352 0.23216 5.39618 0.443684 6.44069C0.655208 7.48519 1.17733 8.44463 1.94401 9.19768C2.7107 9.95072 3.68752 10.4635 4.75095 10.6713C5.81438 10.8791 6.91665 10.7724 7.91839 10.3649C8.92012 9.95733 9.77631 9.26716 10.3787 8.38167C10.9811 7.49618 11.3026 6.45512 11.3026 5.39015C11.3026 3.96206 10.7251 2.59248 9.69697 1.58268C8.66887 0.572875 7.27447 0.0055784 5.82052 0.00558613ZM5.82048 7.69786C5.35579 7.69786 4.90154 7.56252 4.51517 7.30895C4.1288 7.05538 3.82767 6.69497 3.64984 6.2733C3.47202 5.85163 3.42549 5.38763 3.51615 4.93998C3.60681 4.49233 3.83058 4.08114 4.15916 3.75841C4.48774 3.43567 4.90638 3.21588 5.36214 3.12684C5.8179 3.03779 6.2903 3.08349 6.71961 3.25815C7.14892 3.43281 7.51586 3.72859 7.77402 4.10809C8.03219 4.48758 8.16998 4.93375 8.16998 5.39016C8.16997 6.0022 7.92244 6.58917 7.48182 7.02194C7.0412 7.45472 6.4436 7.69785 5.82048 7.69786Z" fill="white"/>
<path d="M3.04914 1.33108C3.8687 0.793213 4.83316 0.505591 5.82052 0.505586C7.14473 0.505579 8.41293 1.02234 9.3466 1.93939C10.28 2.85614 10.8026 4.0976 10.8026 5.39015C10.8026 6.35421 10.5116 7.29738 9.9653 8.10044C9.41891 8.9036 8.64137 9.53094 7.72996 9.90174C6.81848 10.2726 5.81502 10.3697 4.84683 10.1806C3.87868 9.99144 2.99058 9.52477 2.29438 8.84096C1.59828 8.15724 1.12527 7.28723 0.933737 6.34144C0.742216 5.39571 0.840435 4.41533 1.21637 3.5239C1.59235 2.63236 2.22967 1.86889 3.04914 1.33108ZM4.24083 7.72697C4.70918 8.03433 5.25888 8.19786 5.82047 8.19786C6.57334 8.19785 7.29714 7.90418 7.83218 7.37866C8.36753 6.85283 8.66997 6.13773 8.66998 5.39016C8.66998 4.83283 8.50168 4.28878 8.18743 3.82685C7.87326 3.36503 7.42768 3.00642 6.90804 2.79501C6.38847 2.58363 5.81726 2.52846 5.26627 2.63612C4.71523 2.74378 4.20787 3.00973 3.8088 3.4017C3.40963 3.79376 3.13675 4.29438 3.0261 4.84074C2.91544 5.38716 2.97231 5.95345 3.18913 6.46759C3.40591 6.98163 3.77239 7.41954 4.24083 7.72697Z" stroke="#D9D9D9" stroke-opacity="0.15"/>
</g>
<g id="Vector_2">
<path d="M9.73633 12.3134L1.9047 12.3135C1.48929 12.3135 1.09089 12.4756 0.797142 12.7641C0.503398 13.0526 0.338373 13.4439 0.338371 13.8519C0.338368 14.26 0.503389 14.6513 0.797131 14.9398C1.09087 15.2283 1.48927 15.3904 1.90469 15.3904L8.16999 15.3903L8.16987 36.9287L3.4709 36.9287L3.47099 20.0057C3.47099 19.5977 3.30597 19.2064 3.01223 18.9179C2.71849 18.6294 2.32009 18.4673 1.90467 18.4673C1.48926 18.4673 1.09085 18.6294 0.797109 18.9179C0.503365 19.2064 0.33834 19.5977 0.338337 20.0057L0.338238 38.4672C0.338235 38.8752 0.503256 39.2665 0.796998 39.555C1.09074 39.8436 1.48914 40.0056 1.90455 40.0056L9.73618 40.0056C10.1516 40.0056 10.55 39.8435 10.8437 39.555C11.1375 39.2665 11.3025 38.8752 11.3025 38.4671L11.3026 13.8519C11.3026 13.4438 11.1376 13.0525 10.8439 12.764C10.5501 12.4755 10.1517 12.3134 9.73633 12.3134Z" fill="white"/>
<path d="M8.66999 15.3903L8.66999 14.8903L8.16999 14.8903L1.90469 14.8904C1.61902 14.8904 1.34681 14.7788 1.1475 14.5831C0.94849 14.3876 0.838369 14.1244 0.838371 13.8519C0.838372 13.5794 0.948496 13.3163 1.14751 13.1208C1.34682 12.925 1.61903 12.8135 1.9047 12.8135L9.73633 12.8134C10.022 12.8134 10.2942 12.925 10.4935 13.1207C10.6925 13.3162 10.8026 13.5794 10.8026 13.8519L10.8025 38.4671C10.8025 38.7396 10.6924 39.0028 10.4934 39.1983C10.2941 39.3941 10.0219 39.5056 9.73618 39.5056L1.90456 39.5056C1.61888 39.5056 1.34668 39.3941 1.14737 39.1983C0.948358 39.0029 0.838236 38.7397 0.838238 38.4672L0.838337 20.0057C0.838339 19.7333 0.948463 19.4701 1.14747 19.2746C1.34679 19.0788 1.61899 18.9673 1.90467 18.9673C2.19034 18.9673 2.46255 19.0788 2.66186 19.2746C2.86087 19.4701 2.97099 19.7332 2.97099 20.0057L2.9709 36.9287L2.97089 37.4287L3.47089 37.4287L8.16987 37.4287L8.66987 37.4287L8.66987 36.9287L8.66999 15.3903Z" stroke="#D9D9D9" stroke-opacity="0.15"/>
</g>
<g id="Vector_3">
<path d="M37.0417 14.6006C36.1441 13.7425 35.0794 13.0713 33.9113 12.6272C32.7432 12.1831 31.4958 11.9752 30.2439 12.016L28.6776 12.016C26.5025 11.9188 24.3402 12.3914 22.4123 13.3853C22.3697 13.0073 22.186 12.6581 21.8968 12.4053C21.6075 12.1524 21.2332 12.0138 20.8459 12.0161L13.0143 12.0161C12.5989 12.0161 12.2005 12.1782 11.9068 12.4667C11.613 12.7553 11.448 13.1466 11.448 13.5546L11.4479 38.1699C11.4479 38.5779 11.6129 38.9692 11.9066 39.2577C12.2004 39.5462 12.5988 39.7083 13.0142 39.7083L20.8458 39.7083C21.2612 39.7083 21.6596 39.5462 21.9534 39.2577C22.2471 38.9691 22.4121 38.5778 22.4121 38.1698L22.4122 24.3237C22.4122 23.5077 22.7423 22.725 23.3298 22.148C23.9172 21.571 24.714 21.2468 25.5449 21.2468C26.3757 21.2468 27.1725 21.571 27.76 22.148C28.3475 22.725 28.6775 23.5076 28.6775 24.3237L28.6774 38.1698C28.6774 38.5778 28.8424 38.9691 29.1362 39.2576C29.4299 39.5461 29.8283 39.7082 30.2437 39.7082L38.0754 39.7082C38.4908 39.7082 38.8892 39.5461 39.1829 39.2576C39.4767 38.969 39.6417 38.5777 39.6417 38.1697L39.6418 21.2467C39.6868 20.024 39.4797 18.8049 39.0329 17.6628C38.5861 16.5207 37.9088 15.4791 37.0417 14.6006ZM36.5091 36.6313L31.8101 36.6313L31.8102 24.3237C31.8102 22.6916 31.1501 21.1263 29.9751 19.9723C28.8002 18.8182 27.2066 18.1699 25.5449 18.1699C23.8832 18.1699 22.2896 18.8182 21.1146 19.9723C19.9397 21.1264 19.2796 22.6916 19.2796 24.3237L19.2795 36.6314L14.5805 36.6314L14.5806 15.093L19.2796 15.093L19.2796 16.6315C19.2811 16.9352 19.3742 17.2317 19.547 17.4835C19.7198 17.7354 19.9647 17.9314 20.2507 18.0468C20.536 18.1646 20.8503 18.1968 21.1542 18.1393C21.458 18.0818 21.7377 17.9372 21.958 17.7237C23.446 16.1853 24.6208 15.093 28.6776 15.093L30.2439 15.0929C31.0817 15.0576 31.9182 15.1878 32.7038 15.4758C33.4895 15.7639 34.2082 16.2039 34.8175 16.7698C35.389 17.3677 35.833 18.0717 36.1235 18.8405C36.414 19.6094 36.5451 20.4274 36.5091 21.2467L36.5091 36.6313Z" fill="white"/>
<path d="M30.2439 12.516L30.252 12.516L30.2602 12.5158C31.4461 12.4771 32.6275 12.674 33.7336 13.0946C34.8373 13.5142 35.8431 14.1478 36.691 14.957C37.5082 15.7864 38.1462 16.7687 38.5673 17.845C38.9892 18.9234 39.1846 20.0742 39.1421 21.2283L39.1418 21.2375L39.1418 21.2467L39.1417 38.1697C39.1417 38.4422 39.0316 38.7054 38.8326 38.9008C38.6333 39.0966 38.3611 39.2082 38.0754 39.2082L30.2438 39.2082C29.9581 39.2082 29.6859 39.0967 29.4866 38.9009C29.2876 38.7054 29.1774 38.4423 29.1774 38.1698L29.1775 24.3237C29.1775 23.3721 28.7926 22.4613 28.1104 21.7913C27.4284 21.1215 26.5054 20.7468 25.5449 20.7468C24.5843 20.7468 23.6613 21.1215 22.9794 21.7913C22.2972 22.4614 21.9122 23.3721 21.9122 24.3237L21.9121 38.1698C21.9121 38.4423 21.802 38.7055 21.603 38.9009C21.4037 39.0967 21.1315 39.2083 20.8458 39.2083L13.0142 39.2083C12.7285 39.2083 12.4563 39.0968 12.257 38.901C12.058 38.7055 11.9479 38.4423 11.9479 38.1699L11.948 13.5546C11.948 13.2821 12.0581 13.0189 12.2571 12.8234C12.4564 12.6277 12.7286 12.5161 13.0143 12.5161L20.8459 12.5161L20.8489 12.5161C21.1152 12.5145 21.3711 12.6099 21.5677 12.7817C21.764 12.9534 21.8869 13.1886 21.9154 13.4413L21.9966 14.1621L22.6414 13.8297C24.4914 12.876 26.567 12.4222 28.6552 12.5155L28.6664 12.516L28.6776 12.516L30.2439 12.516ZM36.5091 37.1313L37.0091 37.1313L37.0091 36.6313L37.0091 21.2575C37.0464 20.3741 36.9043 19.4924 36.5912 18.6638C36.2768 17.8318 35.7965 17.0705 35.179 16.4244L35.1687 16.4136L35.1578 16.4035C34.4996 15.7921 33.7235 15.3172 32.876 15.0064C32.0318 14.6969 31.1334 14.5564 30.2335 14.5929L28.6776 14.593C26.6073 14.593 25.2185 14.8711 24.1412 15.3792C23.067 15.8858 22.3474 16.6022 21.6048 17.3697C21.4562 17.5118 21.2674 17.609 21.0612 17.648C20.8526 17.6875 20.6369 17.6653 20.4416 17.5847L20.4416 17.5847L20.4378 17.5831C20.242 17.5042 20.0759 17.3706 19.9593 17.2007C19.843 17.0311 19.7808 16.8326 19.7796 16.6299L19.7796 15.093L19.7796 14.593L19.2796 14.593L14.5806 14.593L14.0806 14.593L14.0806 15.093L14.0805 36.6314L14.0805 37.1314L14.5805 37.1314L19.2795 37.1314L19.7795 37.1314L19.7795 36.6314L19.7796 24.3237C19.7796 22.8272 20.3848 21.39 21.465 20.329C22.5456 19.2677 24.013 18.6699 25.5449 18.6699C27.0768 18.6699 28.5442 19.2677 29.6247 20.329C30.705 21.39 31.3102 22.8271 31.3102 24.3237L31.3101 36.6313L31.3101 37.1313L31.8101 37.1313L36.5091 37.1313Z" stroke="#D9D9D9" stroke-opacity="0.15"/>
</g>
</g>
</svg>
