<svg width="116" height="50" viewBox="0 0 116 50" fill="none" xmlns="http://www.w3.org/2000/svg">
<path d="M1.61353 0.702148L5.32837 0.702148L5.32837 15.7607L15.9807 15.7607L15.9807 19.0186L1.61353 19.0186L1.61353 0.702148ZM18.512 9.80762C18.512 8.4248 18.7659 7.15918 19.2737 6.01074C19.7815 4.8623 20.4924 3.87793 21.4065 3.05762C22.3284 2.22949 23.4299 1.58887 24.7112 1.13574C26.0002 0.682617 27.426 0.456055 28.9885 0.456055C30.5432 0.456055 31.9651 0.682617 33.2542 1.13574C34.5432 1.58887 35.6448 2.22949 36.5588 3.05762C37.4807 3.87793 38.1956 4.8623 38.7034 6.01074C39.2112 7.15918 39.4651 8.4248 39.4651 9.80762C39.4651 11.1982 39.2112 12.4756 38.7034 13.6396C38.1956 14.7959 37.4807 15.792 36.5588 16.6279C35.6448 17.4639 34.5432 18.1162 33.2542 18.585C31.9651 19.0459 30.5432 19.2764 28.9885 19.2764C27.426 19.2764 26.0002 19.0459 24.7112 18.585C23.4299 18.1162 22.3284 17.4639 21.4065 16.6279C20.4924 15.792 19.7815 14.7959 19.2737 13.6396C18.7659 12.4756 18.512 11.1982 18.512 9.80762ZM22.2268 9.80762C22.2268 10.7529 22.3948 11.6045 22.7307 12.3623C23.0745 13.1201 23.5471 13.7686 24.1487 14.3076C24.7581 14.8389 25.4729 15.249 26.2932 15.5381C27.1213 15.8271 28.0198 15.9717 28.9885 15.9717C29.9573 15.9717 30.8518 15.8271 31.6721 15.5381C32.5002 15.249 33.2151 14.8389 33.8167 14.3076C34.4182 13.7686 34.8909 13.1201 35.2346 12.3623C35.5784 11.6045 35.7502 10.7529 35.7502 9.80762C35.7502 8.8623 35.5784 8.01465 35.2346 7.26465C34.8909 6.51465 34.4182 5.88184 33.8167 5.36621C33.2151 4.84277 32.5002 4.44434 31.6721 4.1709C30.8518 3.89746 29.9573 3.76074 28.9885 3.76074C28.0198 3.76074 27.1213 3.89746 26.2932 4.1709C25.4729 4.44434 24.7581 4.84277 24.1487 5.36621C23.5471 5.88184 23.0745 6.51465 22.7307 7.26465C22.3948 8.01465 22.2268 8.8623 22.2268 9.80762ZM49.2034 14.4834L41.1995 0.702148L45.4065 0.702148L51.0432 11.1201L56.6096 0.702148L60.8167 0.702148L52.9182 14.46L52.9182 19.0186L49.2034 19.0186L49.2034 14.4834ZM63.1604 0.702148L66.8987 0.702148L66.8987 19.0186L63.1604 19.0186L63.1604 0.702148ZM72.5002 13.5693C73.1643 13.9443 73.8362 14.2842 74.5159 14.5889C75.2034 14.8857 75.9143 15.1396 76.6487 15.3506C77.3831 15.5537 78.1526 15.71 78.9573 15.8193C79.7698 15.9287 80.6331 15.9834 81.5471 15.9834C82.6487 15.9834 83.5862 15.9131 84.3596 15.7725C85.1331 15.624 85.762 15.4248 86.2463 15.1748C86.7385 14.917 87.094 14.6123 87.3127 14.2607C87.5393 13.9092 87.6526 13.5264 87.6526 13.1123C87.6526 12.4482 87.3752 11.9248 86.8206 11.542C86.2659 11.1514 85.4104 10.9561 84.2542 10.9561C83.7463 10.9561 83.2112 10.9912 82.6487 11.0615C82.0862 11.124 81.5159 11.1943 80.9377 11.2725C80.3674 11.3506 79.801 11.4248 79.2385 11.4951C78.6838 11.5576 78.1604 11.5889 77.6682 11.5889C76.8479 11.5889 76.0588 11.4834 75.301 11.2725C74.551 11.0615 73.8831 10.7451 73.2971 10.3232C72.719 9.90137 72.2581 9.37402 71.9143 8.74121C71.5706 8.1084 71.3987 7.37012 71.3987 6.52637C71.3987 6.02637 71.4651 5.53027 71.5979 5.03809C71.7385 4.5459 71.9573 4.07715 72.2542 3.63184C72.5588 3.17871 72.9495 2.76074 73.426 2.37793C73.9026 1.9873 74.4768 1.65137 75.1487 1.37012C75.8284 1.08887 76.6096 0.870117 77.4924 0.713867C78.3831 0.549805 79.3948 0.467773 80.5276 0.467773C81.3479 0.467773 82.1721 0.514648 83.0002 0.608398C83.8284 0.694336 84.6331 0.819336 85.4143 0.983398C86.2034 1.14746 86.9612 1.34668 87.6877 1.58105C88.4143 1.80762 89.0901 2.06152 89.7151 2.34277L88.0862 5.34277C87.5706 5.11621 87.0159 4.90918 86.4221 4.72168C85.8284 4.52637 85.2073 4.3584 84.5588 4.21777C83.9104 4.07715 83.2385 3.96777 82.5432 3.88965C81.8557 3.80371 81.1526 3.76074 80.4338 3.76074C79.4104 3.76074 78.5667 3.83496 77.9026 3.9834C77.2463 4.13184 76.7229 4.32324 76.3323 4.55762C75.9417 4.78418 75.6682 5.04199 75.512 5.33105C75.3635 5.6123 75.2893 5.89355 75.2893 6.1748C75.2893 6.72168 75.5354 7.1709 76.0276 7.52246C76.5198 7.86621 77.2698 8.03809 78.2776 8.03809C78.6838 8.03809 79.1487 8.01074 79.6721 7.95605C80.2034 7.89355 80.7581 7.82715 81.3362 7.75684C81.9221 7.68652 82.5159 7.62402 83.1174 7.56934C83.7268 7.50684 84.3167 7.47559 84.887 7.47559C85.9651 7.47559 86.9182 7.59668 87.7463 7.83887C88.5823 8.08105 89.2815 8.42871 89.844 8.88184C90.4065 9.32715 90.8323 9.87012 91.1213 10.5107C91.4104 11.1436 91.5549 11.8545 91.5549 12.6436C91.5549 13.6982 91.3088 14.6396 90.8167 15.4678C90.3323 16.2881 89.637 16.9834 88.7307 17.5537C87.8323 18.1162 86.7463 18.5459 85.4729 18.8428C84.1995 19.1318 82.7815 19.2764 81.219 19.2764C80.1877 19.2764 79.1799 19.21 78.1956 19.0771C77.2112 18.9521 76.2659 18.7725 75.3596 18.5381C74.4612 18.2959 73.6018 18.0107 72.7815 17.6826C71.969 17.3467 71.2151 16.9795 70.5198 16.5811L72.5002 13.5693ZM94.5667 9.80762C94.5667 8.4248 94.8206 7.15918 95.3284 6.01074C95.8362 4.8623 96.5471 3.87793 97.4612 3.05762C98.3831 2.22949 99.4846 1.58887 100.766 1.13574C102.055 0.682617 103.481 0.456055 105.043 0.456055C106.598 0.456055 108.02 0.682617 109.309 1.13574C110.598 1.58887 111.699 2.22949 112.614 3.05762C113.535 3.87793 114.25 4.8623 114.758 6.01074C115.266 7.15918 115.52 8.4248 115.52 9.80762C115.52 11.1982 115.266 12.4756 114.758 13.6396C114.25 14.7959 113.535 15.792 112.614 16.6279C111.699 17.4639 110.598 18.1162 109.309 18.585C108.02 19.0459 106.598 19.2764 105.043 19.2764C103.481 19.2764 102.055 19.0459 100.766 18.585C99.4846 18.1162 98.3831 17.4639 97.4612 16.6279C96.5471 15.792 95.8362 14.7959 95.3284 13.6396C94.8206 12.4756 94.5667 11.1982 94.5667 9.80762ZM98.2815 9.80762C98.2815 10.7529 98.4495 11.6045 98.7854 12.3623C99.1292 13.1201 99.6018 13.7686 100.203 14.3076C100.813 14.8389 101.528 15.249 102.348 15.5381C103.176 15.8271 104.074 15.9717 105.043 15.9717C106.012 15.9717 106.906 15.8271 107.727 15.5381C108.555 15.249 109.27 14.8389 109.871 14.3076C110.473 13.7686 110.946 13.1201 111.289 12.3623C111.633 11.6045 111.805 10.7529 111.805 9.80762C111.805 8.8623 111.633 8.01465 111.289 7.26465C110.946 6.51465 110.473 5.88184 109.871 5.36621C109.27 4.84277 108.555 4.44434 107.727 4.1709C106.906 3.89746 106.012 3.76074 105.043 3.76074C104.074 3.76074 103.176 3.89746 102.348 4.1709C101.528 4.44434 100.813 4.84277 100.203 5.36621C99.6018 5.88184 99.1292 6.51465 98.7854 7.26465C98.4495 8.01465 98.2815 8.8623 98.2815 9.80762ZM7.13306 33.96L0.371338 33.96L0.371338 30.7021L17.6096 30.7021L17.6096 33.96L10.8479 33.96L10.8479 49.0186L7.13306 49.0186L7.13306 33.96ZM20.5042 39.8076C20.5042 38.4248 20.7581 37.1592 21.2659 36.0107C21.7737 34.8623 22.4846 33.8779 23.3987 33.0576C24.3206 32.2295 25.4221 31.5889 26.7034 31.1357C27.9924 30.6826 29.4182 30.4561 30.9807 30.4561C32.5354 30.4561 33.9573 30.6826 35.2463 31.1357C36.5354 31.5889 37.637 32.2295 38.551 33.0576C39.4729 33.8779 40.1877 34.8623 40.6956 36.0107C41.2034 37.1592 41.4573 38.4248 41.4573 39.8076C41.4573 41.1982 41.2034 42.4756 40.6956 43.6396C40.1877 44.7959 39.4729 45.792 38.551 46.6279C37.637 47.4639 36.5354 48.1162 35.2463 48.585C33.9573 49.0459 32.5354 49.2764 30.9807 49.2764C29.4182 49.2764 27.9924 49.0459 26.7034 48.585C25.4221 48.1162 24.3206 47.4639 23.3987 46.6279C22.4846 45.792 21.7737 44.7959 21.2659 43.6396C20.7581 42.4756 20.5042 41.1982 20.5042 39.8076ZM24.219 39.8076C24.219 40.7529 24.387 41.6045 24.7229 42.3623C25.0667 43.1201 25.5393 43.7686 26.1409 44.3076C26.7502 44.8389 27.4651 45.249 28.2854 45.5381C29.1135 45.8271 30.012 45.9717 30.9807 45.9717C31.9495 45.9717 32.844 45.8271 33.6643 45.5381C34.4924 45.249 35.2073 44.8389 35.8088 44.3076C36.4104 43.7686 36.8831 43.1201 37.2268 42.3623C37.5706 41.6045 37.7424 40.7529 37.7424 39.8076C37.7424 38.8623 37.5706 38.0146 37.2268 37.2646C36.8831 36.5146 36.4104 35.8818 35.8088 35.3662C35.2073 34.8428 34.4924 34.4443 33.6643 34.1709C32.844 33.8975 31.9495 33.7607 30.9807 33.7607C30.012 33.7607 29.1135 33.8975 28.2854 34.1709C27.4651 34.4443 26.7502 34.8428 26.1409 35.3662C25.5393 35.8818 25.0667 36.5146 24.7229 37.2646C24.387 38.0146 24.219 38.8623 24.219 39.8076ZM46.4377 43.5693C47.1018 43.9443 47.7737 44.2842 48.4534 44.5889C49.1409 44.8857 49.8518 45.1396 50.5862 45.3506C51.3206 45.5537 52.0901 45.71 52.8948 45.8193C53.7073 45.9287 54.5706 45.9834 55.4846 45.9834C56.5862 45.9834 57.5237 45.9131 58.2971 45.7725C59.0706 45.624 59.6995 45.4248 60.1838 45.1748C60.676 44.917 61.0315 44.6123 61.2502 44.2607C61.4768 43.9092 61.5901 43.5264 61.5901 43.1123C61.5901 42.4482 61.3127 41.9248 60.7581 41.542C60.2034 41.1514 59.3479 40.9561 58.1917 40.9561C57.6838 40.9561 57.1487 40.9912 56.5862 41.0615C56.0237 41.124 55.4534 41.1943 54.8752 41.2725C54.3049 41.3506 53.7385 41.4248 53.176 41.4951C52.6213 41.5576 52.0979 41.5889 51.6057 41.5889C50.7854 41.5889 49.9963 41.4834 49.2385 41.2725C48.4885 41.0615 47.8206 40.7451 47.2346 40.3232C46.6565 39.9014 46.1956 39.374 45.8518 38.7412C45.5081 38.1084 45.3362 37.3701 45.3362 36.5264C45.3362 36.0264 45.4026 35.5303 45.5354 35.0381C45.676 34.5459 45.8948 34.0771 46.1917 33.6318C46.4963 33.1787 46.887 32.7607 47.3635 32.3779C47.8401 31.9873 48.4143 31.6514 49.0862 31.3701C49.7659 31.0889 50.5471 30.8701 51.4299 30.7139C52.3206 30.5498 53.3323 30.4678 54.4651 30.4678C55.2854 30.4678 56.1096 30.5146 56.9377 30.6084C57.7659 30.6943 58.5706 30.8193 59.3518 30.9834C60.1409 31.1475 60.8987 31.3467 61.6252 31.5811C62.3518 31.8076 63.0276 32.0615 63.6526 32.3428L62.0237 35.3428C61.5081 35.1162 60.9534 34.9092 60.3596 34.7217C59.7659 34.5264 59.1448 34.3584 58.4963 34.2178C57.8479 34.0771 57.176 33.9678 56.4807 33.8896C55.7932 33.8037 55.0901 33.7607 54.3713 33.7607C53.3479 33.7607 52.5042 33.835 51.8401 33.9834C51.1838 34.1318 50.6604 34.3232 50.2698 34.5576C49.8792 34.7842 49.6057 35.042 49.4495 35.3311C49.301 35.6123 49.2268 35.8936 49.2268 36.1748C49.2268 36.7217 49.4729 37.1709 49.9651 37.5225C50.4573 37.8662 51.2073 38.0381 52.2151 38.0381C52.6213 38.0381 53.0862 38.0107 53.6096 37.9561C54.1409 37.8936 54.6956 37.8271 55.2737 37.7568C55.8596 37.6865 56.4534 37.624 57.0549 37.5693C57.6643 37.5068 58.2542 37.4756 58.8245 37.4756C59.9026 37.4756 60.8557 37.5967 61.6838 37.8389C62.5198 38.0811 63.219 38.4287 63.7815 38.8818C64.344 39.3271 64.7698 39.8701 65.0588 40.5107C65.3479 41.1436 65.4924 41.8545 65.4924 42.6436C65.4924 43.6982 65.2463 44.6396 64.7542 45.4678C64.2698 46.2881 63.5745 46.9834 62.6682 47.5537C61.7698 48.1162 60.6838 48.5459 59.4104 48.8428C58.137 49.1318 56.719 49.2764 55.1565 49.2764C54.1252 49.2764 53.1174 49.21 52.1331 49.0771C51.1487 48.9521 50.2034 48.7725 49.2971 48.5381C48.3987 48.2959 47.5393 48.0107 46.719 47.6826C45.9065 47.3467 45.1526 46.9795 44.4573 46.5811L46.4377 43.5693ZM69.5823 30.7021L85.1799 30.7021L85.1799 33.96L73.2971 33.96L73.2971 37.6162L83.8206 37.6162L83.8206 40.6748L73.2971 40.6748L73.2971 45.7725L85.426 45.7725L85.426 49.0186L69.5823 49.0186L69.5823 30.7021Z" fill="white"/>
</svg>
