<svg width="60" height="60" viewBox="0 0 60 60" fill="none" xmlns="http://www.w3.org/2000/svg">
<g id="Frame">
<g id="Group">
<path id="Vector" fill-rule="evenodd" clip-rule="evenodd" d="M14.5312 17.8125H44.5312C45.1529 17.8125 45.749 18.0594 46.1885 18.499C46.6281 18.9385 46.875 19.5346 46.875 20.1562C46.875 20.7779 46.6281 21.374 46.1885 21.8135C45.749 22.2531 45.1529 22.5 44.5312 22.5H14.5312C13.9096 22.5 13.3135 22.2531 12.874 21.8135C12.4344 21.374 12.1875 20.7779 12.1875 20.1562C12.1875 19.5346 12.4344 18.9385 12.874 18.499C13.3135 18.0594 13.9096 17.8125 14.5312 17.8125ZM14.5312 27.1875H44.5312C45.1529 27.1875 45.749 27.4344 46.1885 27.874C46.6281 28.3135 46.875 28.9096 46.875 29.5312C46.875 30.1529 46.6281 30.749 46.1885 31.1885C45.749 31.6281 45.1529 31.875 44.5312 31.875H14.5312C13.9096 31.875 13.3135 31.6281 12.874 31.1885C12.4344 30.749 12.1875 30.1529 12.1875 29.5312C12.1875 28.9096 12.4344 28.3135 12.874 27.874C13.3135 27.4344 13.9096 27.1875 14.5312 27.1875ZM14.5312 36.5625H44.5312C45.1529 36.5625 45.749 36.8094 46.1885 37.249C46.6281 37.6885 46.875 38.2846 46.875 38.9062C46.875 39.5279 46.6281 40.124 46.1885 40.5635C45.749 41.0031 45.1529 41.25 44.5312 41.25H14.5312C13.9096 41.25 13.3135 41.0031 12.874 40.5635C12.4344 40.124 12.1875 39.5279 12.1875 38.9062C12.1875 38.2846 12.4344 37.6885 12.874 37.249C13.3135 36.8094 13.9096 36.5625 14.5312 36.5625Z" fill="white"/>
</g>
</g>
</svg>
