<svg width="25" height="25" viewBox="0 0 25 25" fill="none" xmlns="http://www.w3.org/2000/svg">
<g id="Frame">
<g id="Group">
<path id="Vector" fill-rule="evenodd" clip-rule="evenodd" d="M6.05469 7.42188H18.5547C18.8137 7.42188 19.0621 7.52476 19.2452 7.7079C19.4284 7.89104 19.5312 8.13944 19.5312 8.39844C19.5312 8.65744 19.4284 8.90583 19.2452 9.08897C19.0621 9.27211 18.8137 9.375 18.5547 9.375H6.05469C5.79569 9.375 5.54729 9.27211 5.36415 9.08897C5.18101 8.90583 5.07812 8.65744 5.07812 8.39844C5.07812 8.13944 5.18101 7.89104 5.36415 7.7079C5.54729 7.52476 5.79569 7.42188 6.05469 7.42188ZM6.05469 11.3281H18.5547C18.8137 11.3281 19.0621 11.431 19.2452 11.6142C19.4284 11.7973 19.5312 12.0457 19.5312 12.3047C19.5312 12.5637 19.4284 12.8121 19.2452 12.9952C19.0621 13.1784 18.8137 13.2812 18.5547 13.2812H6.05469C5.79569 13.2813 5.54729 13.1784 5.36415 12.9952C5.18101 12.8121 5.07812 12.5637 5.07812 12.3047C5.07812 12.0457 5.18101 11.7973 5.36415 11.6142C5.54729 11.431 5.79569 11.3281 6.05469 11.3281ZM6.05469 15.2344H18.5547C18.8137 15.2344 19.0621 15.3373 19.2452 15.5204C19.4284 15.7035 19.5312 15.9519 19.5312 16.2109C19.5312 16.4699 19.4284 16.7183 19.2452 16.9015C19.0621 17.0846 18.8137 17.1875 18.5547 17.1875H6.05469C5.79569 17.1875 5.54729 17.0846 5.36415 16.9015C5.18101 16.7183 5.07812 16.4699 5.07812 16.2109C5.07812 15.9519 5.18101 15.7035 5.36415 15.5204C5.54729 15.3373 5.79569 15.2344 6.05469 15.2344Z" fill="white"/>
</g>
</g>
</svg>
