<svg width="91" height="91" viewBox="0 0 91 91" fill="none" xmlns="http://www.w3.org/2000/svg">
<path d="M53.9602 1.21016L57.3184 1.96353L60.0423 2.94291L62.2438 4.07296L63.9229 5.27835L65.1916 6.55907L66.1244 7.83979L66.7214 9.08284L67.0946 10.2129L67.2438 11.1923L67.3185 11.9456L67.2811 12.4353L67.2812 32.5501L67.0946 34.9232L66.6096 36.9949L65.826 38.7277L64.8559 40.159L63.7365 41.3267L62.5051 42.2684L61.1991 42.9841L59.8932 43.5115L58.6618 43.8882L57.5424 44.1518L56.5723 44.3025L55.7887 44.3778L33.5126 44.3778L30.938 44.5661L28.7365 45.0935L26.8708 45.9222L25.3409 46.9392L24.1096 48.1446L23.1021 49.4629L22.3559 50.819L21.7962 52.2127L21.4231 53.5311L21.1619 54.7365L21.0126 55.7535L20.938 56.5445L20.938 68.071L12.6171 68.071L11.8335 67.958L10.7888 67.6943L9.59474 67.2423L8.28876 66.5642L6.94548 65.5849L5.60219 64.2288L4.29621 62.4961L3.10218 60.2736L2.05739 57.5239L1.2738 54.2091L0.751404 50.2539L0.564824 45.6207L0.788692 41.0252L1.3857 37.1077L2.28121 33.8306L3.47523 31.1562L4.81851 29.0091L6.31104 27.3517L7.8782 26.1087L9.44536 25.2046L10.9379 24.6019L12.2812 24.2253L13.4752 24.0369L14.3707 23.9993L14.9677 23.9993L15.1916 24.0369L45.6394 24.037L45.6394 20.9106L23.8483 20.9105L23.811 10.5518L23.7364 9.15805L23.9229 7.87733L24.3334 6.70962L24.9677 5.65492L25.9005 4.67555L27.0572 3.80918L28.4752 3.05583L30.1169 2.3778L32.0199 1.81279L34.1841 1.36078L36.5722 0.984102L39.2214 0.758101L42.0945 0.607436L45.2289 0.532109L49.9677 0.720463L53.9602 1.21016ZM30.4528 8.66838L29.5946 9.91143L29.2961 11.4558L29.5946 13.0002L30.4528 14.2809L31.6841 15.1096L33.214 15.4487L34.7438 15.1096L35.9752 14.281L36.8334 13.0002L37.1319 11.4558L36.8334 9.91145L35.9752 8.6684L34.7438 7.8397L33.214 7.50068L31.6841 7.83969L30.4528 8.66838ZM79.2961 23.5474L80.3409 23.7734L81.5349 24.2255L82.8409 24.9035L84.1842 25.9205L85.5275 27.2389L86.8334 29.0093L88.0275 31.2318L89.0723 33.9815L89.8558 37.2963L90.3782 41.2138L90.5648 45.847L90.341 50.4802L89.7439 54.3977L88.8484 57.6371L87.6544 60.3116L86.3111 62.4586L84.8186 64.1537L83.2514 65.3967L81.6843 66.3008L80.1918 66.9035L78.8485 67.2425L77.6544 67.4308L76.7589 67.5061L76.1619 67.4685L45.4903 67.4684L45.4903 70.5572L67.2813 70.5572L67.3187 80.9536L67.3933 82.3097L67.2067 83.5904L66.7963 84.7581L66.162 85.8505L65.2291 86.7922L64.0724 87.6962L62.6545 88.4496L61.0127 89.0899L59.1097 89.6549L56.9455 90.1446L54.5575 90.4836L51.9082 90.7473L49.0351 90.898L45.9008 90.9356L41.162 90.7849L37.1694 90.2576L33.8112 89.5042L31.0873 88.5625L28.8858 87.4324L27.2067 86.1894L25.9381 84.9087L25.0052 83.6279L24.4082 82.3849L24.0351 81.2549L23.8858 80.3132L23.8112 79.5598L23.8485 79.0701L23.8484 58.9553L24.035 56.5446L24.5201 54.5105L25.3036 52.7777L26.2738 51.3464L27.3932 50.141L28.6245 49.237L29.9305 48.4836L31.2365 47.9562L32.4678 47.5796L33.5872 47.3536L34.5574 47.2029L35.3409 47.1276L35.826 47.0899L57.6171 47.09L60.1917 46.9016L62.3932 46.3743L64.2589 45.5832L65.7887 44.5285L67.02 43.3232L68.0275 42.0048L68.7738 40.6487L69.3335 39.2927L69.7066 37.9743L69.9678 36.7689L70.117 35.7142L70.1917 34.9232L70.1916 23.3967L77.9901 23.3968L78.5125 23.4344L79.2961 23.5474ZM55.1545 77.2245L54.2963 78.4675L53.9978 80.0119L54.2963 81.5563L55.1545 82.7993L56.3858 83.6657L57.9157 83.9671L59.4455 83.6657L60.6769 82.7993L61.5351 81.5563L61.8336 80.0119L61.5351 78.4675L60.6769 77.2245L59.4455 76.3581L57.9157 76.0567L56.3858 76.3581L55.1545 77.2245Z" fill="white"/>
</svg>
