<svg width="36" height="36" viewBox="0 0 36 36" fill="none" xmlns="http://www.w3.org/2000/svg">
<path id="imoticon_2" fill-rule="evenodd" clip-rule="evenodd" d="M17.9387 35.3699C27.8115 35.3555 35.8036 27.5089 35.7895 17.8439C35.7755 8.17894 27.7606 0.355585 17.8877 0.369963C8.01492 0.384341 0.0228236 8.231 0.0368986 17.896C0.0509736 27.5609 8.06589 35.3843 17.9387 35.3699ZM17.932 30.7866C24.5139 30.777 29.4173 26.2212 29.4088 20.3532C29.4079 19.7282 24.5008 21.7865 17.9189 21.7961C11.3371 21.8057 6.42403 19.7617 6.42494 20.3867C6.43349 26.2547 11.3502 30.7962 17.932 30.7866ZM13.0185 17.8771C14.0763 17.8755 14.9307 15.729 14.9269 13.0826C14.923 10.4363 14.0624 8.29221 13.0046 8.29375C11.9468 8.29529 11.0924 10.4418 11.0962 13.0882C11.1001 15.7346 11.9607 17.8786 13.0185 17.8771ZM22.8079 17.8628C23.8657 17.8613 24.7201 15.7147 24.7163 13.0684C24.7124 10.422 23.8518 8.27795 22.794 8.27949C21.7362 8.28103 20.8818 10.4276 20.8856 13.0739C20.8895 15.7203 21.7501 17.8644 22.8079 17.8628Z" fill="#FFFBFB"/>
</svg>
