<svg width="41" height="40" viewBox="0 0 41 40" fill="none" xmlns="http://www.w3.org/2000/svg">
<path id="imoticon_2" fill-rule="evenodd" clip-rule="evenodd" d="M20.0685 39.5076C31.1142 39.4915 40.0557 30.7127 40.0399 19.8996C40.0242 9.08644 31.0571 0.333695 20.0115 0.34978C8.96577 0.365866 0.0242401 9.14469 0.0399872 19.9578C0.0557343 30.771 9.02279 39.5237 20.0685 39.5076ZM20.061 34.3798C27.4248 34.3691 32.9107 29.2721 32.9012 22.707C32.9001 22.0077 27.4102 24.3106 20.0464 24.3213C12.6826 24.332 7.18589 22.0452 7.18691 22.7444C7.19647 29.3095 12.6972 34.3905 20.061 34.3798ZM14.5638 19.9367C15.7472 19.935 16.7031 17.5334 16.6988 14.5727C16.6945 11.6119 15.7316 9.21317 14.5482 9.21489C13.3647 9.21661 12.4088 11.6182 12.4131 14.5789C12.4174 17.5396 13.3803 19.9384 14.5638 19.9367ZM25.5161 19.9207C26.6996 19.919 27.6555 17.5175 27.6512 14.5567C27.6469 11.596 26.684 9.19722 25.5005 9.19894C24.3171 9.20066 23.3612 11.6022 23.3655 14.563C23.3698 17.5237 24.3327 19.9225 25.5161 19.9207Z" fill="#FFFBFB"/>
</svg>
