<svg width="73" height="84" viewBox="0 0 73 84" fill="none" xmlns="http://www.w3.org/2000/svg">
<path d="M0.184326 0.307129L6.79776 75.1855L36.4842 83.5033L66.1936 75.1899L72.8191 0.307335L0.184326 0.307129ZM58.4718 24.7947L36.5008 24.7946L23.6584 24.7946L24.4893 34.1997L36.5008 34.1998L57.6451 34.1998L55.1506 62.4025L36.5009 67.6181L36.4884 67.6223L17.8511 62.4024L16.5505 47.6509L25.6813 47.6509L26.3576 55.3027L36.4904 58.0676L36.5029 58.0634L46.6461 55.2986L47.7024 43.3878L36.5029 43.3878L16.1727 43.3877L13.7156 15.615L36.5007 15.615L59.2838 15.6151L58.4718 24.7947Z" fill="white"/>
</svg>
